<?xml version="1.0" encoding="UTF-8" standalone="no"?>
<!DOCTYPE svg PUBLIC "-//W3C//DTD SVG 1.1//EN"
 "http://www.w3.org/Graphics/SVG/1.1/DTD/svg11.dtd">
<!-- Generated by graphviz version 2.36.0 (20140111.2315)
 -->
<!-- Title: controllers_diagram Pages: 1 -->
<svg width="1043pt" height="949pt"
 viewBox="0.00 0.00 1043.00 949.00" xmlns="http://www.w3.org/2000/svg" xmlns:xlink="http://www.w3.org/1999/xlink">
<g id="graph0" class="graph" transform="scale(1 1) rotate(0) translate(4 945)">
<title>controllers_diagram</title>
<polygon fill="none" stroke="none" points="-4,4 -4,-945 1039,-945 1039,4 -4,4"/>
<!-- _diagram_info -->
<g id="node1" class="node"><title>_diagram_info</title>
<text text-anchor="start" x="673" y="-63.6" font-family="Times,serif" font-size="13.00">Controllers diagram</text>
<text text-anchor="start" x="673" y="-49.6" font-family="Times,serif" font-size="13.00">Date: Sep 15 2018 &#45; 08:06</text>
<text text-anchor="start" x="673" y="-35.6" font-family="Times,serif" font-size="13.00">Migration version: 20180904133446</text>
<text text-anchor="start" x="673" y="-21.6" font-family="Times,serif" font-size="13.00">Generated by RailRoady 1.5.3</text>
<text text-anchor="start" x="673" y="-7.6" font-family="Times,serif" font-size="13.00">http://railroady.prestonlee.com</text>
</g>
<!-- ErrorsController -->
<g id="node2" class="node"><title>ErrorsController</title>
<path fill="none" stroke="black" d="M12,-665.5C12,-665.5 119,-665.5 119,-665.5 125,-665.5 131,-671.5 131,-677.5 131,-677.5 131,-761.5 131,-761.5 131,-767.5 125,-773.5 119,-773.5 119,-773.5 12,-773.5 12,-773.5 6,-773.5 -5.68434e-14,-767.5 -5.68434e-14,-761.5 -5.68434e-14,-761.5 -5.68434e-14,-677.5 -5.68434e-14,-677.5 -5.68434e-14,-671.5 6,-665.5 12,-665.5"/>
<text text-anchor="middle" x="65.5" y="-758.3" font-family="Times,serif" font-size="14.00">ErrorsController</text>
<polyline fill="none" stroke="black" points="-5.68434e-14,-750.5 131,-750.5 "/>
<text text-anchor="start" x="8" y="-735.3" font-family="Times,serif" font-size="14.00">internal_server_error</text>
<text text-anchor="start" x="8" y="-720.3" font-family="Times,serif" font-size="14.00">not_found</text>
<polyline fill="none" stroke="black" points="-5.68434e-14,-712.5 131,-712.5 "/>
<polyline fill="none" stroke="black" points="-5.68434e-14,-688.5 131,-688.5 "/>
<text text-anchor="start" x="8" y="-673.3" font-family="Times,serif" font-size="14.00">_layout</text>
</g>
<!-- ApplicationController -->
<g id="node3" class="node"><title>ApplicationController</title>
<path fill="none" stroke="black" d="M867,-114.5C867,-114.5 979,-114.5 979,-114.5 985,-114.5 991,-120.5 991,-126.5 991,-126.5 991,-240.5 991,-240.5 991,-246.5 985,-252.5 979,-252.5 979,-252.5 867,-252.5 867,-252.5 861,-252.5 855,-246.5 855,-240.5 855,-240.5 855,-126.5 855,-126.5 855,-120.5 861,-114.5 867,-114.5"/>
<text text-anchor="middle" x="923" y="-237.3" font-family="Times,serif" font-size="14.00">ApplicationController</text>
<polyline fill="none" stroke="black" points="855,-229.5 991,-229.5 "/>
<text text-anchor="start" x="863" y="-214.3" font-family="Times,serif" font-size="14.00">check_attributes</text>
<text text-anchor="start" x="863" y="-199.3" font-family="Times,serif" font-size="14.00">cookie_set</text>
<text text-anchor="start" x="863" y="-184.3" font-family="Times,serif" font-size="14.00">current_ability</text>
<text text-anchor="start" x="863" y="-169.3" font-family="Times,serif" font-size="14.00">logged_in_gamer</text>
<polyline fill="none" stroke="black" points="855,-161.5 991,-161.5 "/>
<polyline fill="none" stroke="black" points="855,-137.5 991,-137.5 "/>
<text text-anchor="start" x="863" y="-122.3" font-family="Times,serif" font-size="14.00">_layout</text>
</g>
<!-- PasswordResetsController -->
<g id="node4" class="node"><title>PasswordResetsController</title>
<path fill="none" stroke="black" d="M335,-551.5C335,-551.5 470,-551.5 470,-551.5 476,-551.5 482,-557.5 482,-563.5 482,-563.5 482,-737.5 482,-737.5 482,-743.5 476,-749.5 470,-749.5 470,-749.5 335,-749.5 335,-749.5 329,-749.5 323,-743.5 323,-737.5 323,-737.5 323,-563.5 323,-563.5 323,-557.5 329,-551.5 335,-551.5"/>
<text text-anchor="middle" x="402.5" y="-734.3" font-family="Times,serif" font-size="14.00">PasswordResetsController</text>
<polyline fill="none" stroke="black" points="323,-726.5 482,-726.5 "/>
<text text-anchor="start" x="331" y="-711.3" font-family="Times,serif" font-size="14.00">create</text>
<text text-anchor="start" x="331" y="-696.3" font-family="Times,serif" font-size="14.00">edit</text>
<text text-anchor="start" x="331" y="-681.3" font-family="Times,serif" font-size="14.00">new</text>
<text text-anchor="start" x="331" y="-666.3" font-family="Times,serif" font-size="14.00">update</text>
<polyline fill="none" stroke="black" points="323,-658.5 482,-658.5 "/>
<polyline fill="none" stroke="black" points="323,-634.5 482,-634.5 "/>
<text text-anchor="start" x="331" y="-619.3" font-family="Times,serif" font-size="14.00">_layout</text>
<text text-anchor="start" x="331" y="-604.3" font-family="Times,serif" font-size="14.00">check_expiration</text>
<text text-anchor="start" x="331" y="-589.3" font-family="Times,serif" font-size="14.00">gamer_params</text>
<text text-anchor="start" x="331" y="-574.3" font-family="Times,serif" font-size="14.00">get_gamer</text>
<text text-anchor="start" x="331" y="-559.3" font-family="Times,serif" font-size="14.00">valid_gamer</text>
</g>
<!-- ChallengesController -->
<g id="node5" class="node"><title>ChallengesController</title>
<path fill="none" stroke="black" d="M658,-589.5C658,-589.5 766,-589.5 766,-589.5 772,-589.5 778,-595.5 778,-601.5 778,-601.5 778,-820.5 778,-820.5 778,-826.5 772,-832.5 766,-832.5 766,-832.5 658,-832.5 658,-832.5 652,-832.5 646,-826.5 646,-820.5 646,-820.5 646,-601.5 646,-601.5 646,-595.5 652,-589.5 658,-589.5"/>
<text text-anchor="middle" x="712" y="-817.3" font-family="Times,serif" font-size="14.00">ChallengesController</text>
<polyline fill="none" stroke="black" points="646,-809.5 778,-809.5 "/>
<text text-anchor="start" x="654" y="-794.3" font-family="Times,serif" font-size="14.00">accept</text>
<text text-anchor="start" x="654" y="-779.3" font-family="Times,serif" font-size="14.00">create</text>
<text text-anchor="start" x="654" y="-764.3" font-family="Times,serif" font-size="14.00">destroy</text>
<text text-anchor="start" x="654" y="-749.3" font-family="Times,serif" font-size="14.00">edit</text>
<text text-anchor="start" x="654" y="-734.3" font-family="Times,serif" font-size="14.00">index</text>
<text text-anchor="start" x="654" y="-719.3" font-family="Times,serif" font-size="14.00">new</text>
<text text-anchor="start" x="654" y="-704.3" font-family="Times,serif" font-size="14.00">refuse</text>
<text text-anchor="start" x="654" y="-689.3" font-family="Times,serif" font-size="14.00">show</text>
<text text-anchor="start" x="654" y="-674.3" font-family="Times,serif" font-size="14.00">update</text>
<polyline fill="none" stroke="black" points="646,-666.5 778,-666.5 "/>
<polyline fill="none" stroke="black" points="646,-642.5 778,-642.5 "/>
<text text-anchor="start" x="654" y="-627.3" font-family="Times,serif" font-size="14.00">_layout</text>
<text text-anchor="start" x="654" y="-612.3" font-family="Times,serif" font-size="14.00">challenge_params</text>
<text text-anchor="start" x="654" y="-597.3" font-family="Times,serif" font-size="14.00">set_challenge</text>
</g>
<!-- AccountActivationsController -->
<g id="node6" class="node"><title>AccountActivationsController</title>
<path fill="none" stroke="black" d="M867,-285.5C867,-285.5 1023,-285.5 1023,-285.5 1029,-285.5 1035,-291.5 1035,-297.5 1035,-297.5 1035,-366.5 1035,-366.5 1035,-372.5 1029,-378.5 1023,-378.5 1023,-378.5 867,-378.5 867,-378.5 861,-378.5 855,-372.5 855,-366.5 855,-366.5 855,-297.5 855,-297.5 855,-291.5 861,-285.5 867,-285.5"/>
<text text-anchor="middle" x="945" y="-363.3" font-family="Times,serif" font-size="14.00">AccountActivationsController</text>
<polyline fill="none" stroke="black" points="855,-355.5 1035,-355.5 "/>
<text text-anchor="start" x="863" y="-340.3" font-family="Times,serif" font-size="14.00">edit</text>
<polyline fill="none" stroke="black" points="855,-332.5 1035,-332.5 "/>
<polyline fill="none" stroke="black" points="855,-308.5 1035,-308.5 "/>
<text text-anchor="start" x="863" y="-293.3" font-family="Times,serif" font-size="14.00">_layout</text>
</g>
<!-- StaticPagesController -->
<g id="node7" class="node"><title>StaticPagesController</title>
<path fill="none" stroke="black" d="M12,-817.5C12,-817.5 122,-817.5 122,-817.5 128,-817.5 134,-823.5 134,-829.5 134,-829.5 134,-928.5 134,-928.5 134,-934.5 128,-940.5 122,-940.5 122,-940.5 12,-940.5 12,-940.5 6,-940.5 -5.68434e-14,-934.5 -5.68434e-14,-928.5 -5.68434e-14,-928.5 -5.68434e-14,-829.5 -5.68434e-14,-829.5 -5.68434e-14,-823.5 6,-817.5 12,-817.5"/>
<text text-anchor="middle" x="67" y="-925.3" font-family="Times,serif" font-size="14.00">StaticPagesController</text>
<polyline fill="none" stroke="black" points="-5.68434e-14,-917.5 134,-917.5 "/>
<text text-anchor="start" x="8" y="-902.3" font-family="Times,serif" font-size="14.00">about</text>
<text text-anchor="start" x="8" y="-887.3" font-family="Times,serif" font-size="14.00">help</text>
<text text-anchor="start" x="8" y="-872.3" font-family="Times,serif" font-size="14.00">home</text>
<polyline fill="none" stroke="black" points="-5.68434e-14,-864.5 134,-864.5 "/>
<polyline fill="none" stroke="black" points="-5.68434e-14,-840.5 134,-840.5 "/>
<text text-anchor="start" x="8" y="-825.3" font-family="Times,serif" font-size="14.00">_layout</text>
</g>
<!-- GroupsController -->
<g id="node8" class="node"><title>GroupsController</title>
<path fill="none" stroke="black" d="M221,-247.5C221,-247.5 309,-247.5 309,-247.5 315,-247.5 321,-253.5 321,-259.5 321,-259.5 321,-493.5 321,-493.5 321,-499.5 315,-505.5 309,-505.5 309,-505.5 221,-505.5 221,-505.5 215,-505.5 209,-499.5 209,-493.5 209,-493.5 209,-259.5 209,-259.5 209,-253.5 215,-247.5 221,-247.5"/>
<text text-anchor="middle" x="265" y="-490.3" font-family="Times,serif" font-size="14.00">GroupsController</text>
<polyline fill="none" stroke="black" points="209,-482.5 321,-482.5 "/>
<text text-anchor="start" x="217" y="-467.3" font-family="Times,serif" font-size="14.00">create</text>
<text text-anchor="start" x="217" y="-452.3" font-family="Times,serif" font-size="14.00">destroy</text>
<text text-anchor="start" x="217" y="-437.3" font-family="Times,serif" font-size="14.00">edit</text>
<text text-anchor="start" x="217" y="-422.3" font-family="Times,serif" font-size="14.00">index</text>
<text text-anchor="start" x="217" y="-407.3" font-family="Times,serif" font-size="14.00">join</text>
<text text-anchor="start" x="217" y="-392.3" font-family="Times,serif" font-size="14.00">leave</text>
<text text-anchor="start" x="217" y="-377.3" font-family="Times,serif" font-size="14.00">my_groups</text>
<text text-anchor="start" x="217" y="-362.3" font-family="Times,serif" font-size="14.00">new</text>
<text text-anchor="start" x="217" y="-347.3" font-family="Times,serif" font-size="14.00">show</text>
<text text-anchor="start" x="217" y="-332.3" font-family="Times,serif" font-size="14.00">update</text>
<polyline fill="none" stroke="black" points="209,-324.5 321,-324.5 "/>
<polyline fill="none" stroke="black" points="209,-300.5 321,-300.5 "/>
<text text-anchor="start" x="217" y="-285.3" font-family="Times,serif" font-size="14.00">_layout</text>
<text text-anchor="start" x="217" y="-270.3" font-family="Times,serif" font-size="14.00">group_params</text>
<text text-anchor="start" x="217" y="-255.3" font-family="Times,serif" font-size="14.00">set_group</text>
</g>
<!-- ConsolesController -->
<g id="node9" class="node"><title>ConsolesController</title>
<path fill="none" stroke="black" d="M525,-57.5C525,-57.5 623,-57.5 623,-57.5 629,-57.5 635,-63.5 635,-69.5 635,-69.5 635,-258.5 635,-258.5 635,-264.5 629,-270.5 623,-270.5 623,-270.5 525,-270.5 525,-270.5 519,-270.5 513,-264.5 513,-258.5 513,-258.5 513,-69.5 513,-69.5 513,-63.5 519,-57.5 525,-57.5"/>
<text text-anchor="middle" x="574" y="-255.3" font-family="Times,serif" font-size="14.00">ConsolesController</text>
<polyline fill="none" stroke="black" points="513,-247.5 635,-247.5 "/>
<text text-anchor="start" x="521" y="-232.3" font-family="Times,serif" font-size="14.00">create</text>
<text text-anchor="start" x="521" y="-217.3" font-family="Times,serif" font-size="14.00">destroy</text>
<text text-anchor="start" x="521" y="-202.3" font-family="Times,serif" font-size="14.00">edit</text>
<text text-anchor="start" x="521" y="-187.3" font-family="Times,serif" font-size="14.00">index</text>
<text text-anchor="start" x="521" y="-172.3" font-family="Times,serif" font-size="14.00">new</text>
<text text-anchor="start" x="521" y="-157.3" font-family="Times,serif" font-size="14.00">show</text>
<text text-anchor="start" x="521" y="-142.3" font-family="Times,serif" font-size="14.00">update</text>
<polyline fill="none" stroke="black" points="513,-134.5 635,-134.5 "/>
<polyline fill="none" stroke="black" points="513,-110.5 635,-110.5 "/>
<text text-anchor="start" x="521" y="-95.3" font-family="Times,serif" font-size="14.00">_layout</text>
<text text-anchor="start" x="521" y="-80.3" font-family="Times,serif" font-size="14.00">console_params</text>
<text text-anchor="start" x="521" y="-65.3" font-family="Times,serif" font-size="14.00">set_console</text>
</g>
<!-- ChatroomsController -->
<g id="node10" class="node"><title>ChatroomsController</title>
<path fill="none" stroke="black" d="M829,-418.5C829,-418.5 937,-418.5 937,-418.5 943,-418.5 949,-424.5 949,-430.5 949,-430.5 949,-634.5 949,-634.5 949,-640.5 943,-646.5 937,-646.5 937,-646.5 829,-646.5 829,-646.5 823,-646.5 817,-640.5 817,-634.5 817,-634.5 817,-430.5 817,-430.5 817,-424.5 823,-418.5 829,-418.5"/>
<text text-anchor="middle" x="883" y="-631.3" font-family="Times,serif" font-size="14.00">ChatroomsController</text>
<polyline fill="none" stroke="black" points="817,-623.5 949,-623.5 "/>
<text text-anchor="start" x="825" y="-608.3" font-family="Times,serif" font-size="14.00">create</text>
<text text-anchor="start" x="825" y="-593.3" font-family="Times,serif" font-size="14.00">destroy</text>
<text text-anchor="start" x="825" y="-578.3" font-family="Times,serif" font-size="14.00">edit</text>
<text text-anchor="start" x="825" y="-563.3" font-family="Times,serif" font-size="14.00">index</text>
<text text-anchor="start" x="825" y="-548.3" font-family="Times,serif" font-size="14.00">new</text>
<text text-anchor="start" x="825" y="-533.3" font-family="Times,serif" font-size="14.00">show</text>
<text text-anchor="start" x="825" y="-518.3" font-family="Times,serif" font-size="14.00">update</text>
<polyline fill="none" stroke="black" points="817,-510.5 949,-510.5 "/>
<polyline fill="none" stroke="black" points="817,-486.5 949,-486.5 "/>
<text text-anchor="start" x="825" y="-471.3" font-family="Times,serif" font-size="14.00">_layout</text>
<text text-anchor="start" x="825" y="-456.3" font-family="Times,serif" font-size="14.00">chatroom_params</text>
<text text-anchor="start" x="825" y="-441.3" font-family="Times,serif" font-size="14.00">set_chatroom</text>
<text text-anchor="start" x="825" y="-426.3" font-family="Times,serif" font-size="14.00">set_group</text>
</g>
<!-- GamesController -->
<g id="node11" class="node"><title>GamesController</title>
<path fill="none" stroke="black" d="M69,-380.5C69,-380.5 155,-380.5 155,-380.5 161,-380.5 167,-386.5 167,-392.5 167,-392.5 167,-581.5 167,-581.5 167,-587.5 161,-593.5 155,-593.5 155,-593.5 69,-593.5 69,-593.5 63,-593.5 57,-587.5 57,-581.5 57,-581.5 57,-392.5 57,-392.5 57,-386.5 63,-380.5 69,-380.5"/>
<text text-anchor="middle" x="112" y="-578.3" font-family="Times,serif" font-size="14.00">GamesController</text>
<polyline fill="none" stroke="black" points="57,-570.5 167,-570.5 "/>
<text text-anchor="start" x="65" y="-555.3" font-family="Times,serif" font-size="14.00">create</text>
<text text-anchor="start" x="65" y="-540.3" font-family="Times,serif" font-size="14.00">destroy</text>
<text text-anchor="start" x="65" y="-525.3" font-family="Times,serif" font-size="14.00">edit</text>
<text text-anchor="start" x="65" y="-510.3" font-family="Times,serif" font-size="14.00">index</text>
<text text-anchor="start" x="65" y="-495.3" font-family="Times,serif" font-size="14.00">new</text>
<text text-anchor="start" x="65" y="-480.3" font-family="Times,serif" font-size="14.00">show</text>
<text text-anchor="start" x="65" y="-465.3" font-family="Times,serif" font-size="14.00">update</text>
<polyline fill="none" stroke="black" points="57,-457.5 167,-457.5 "/>
<polyline fill="none" stroke="black" points="57,-433.5 167,-433.5 "/>
<text text-anchor="start" x="65" y="-418.3" font-family="Times,serif" font-size="14.00">_layout</text>
<text text-anchor="start" x="65" y="-403.3" font-family="Times,serif" font-size="14.00">game_params</text>
<text text-anchor="start" x="65" y="-388.3" font-family="Times,serif" font-size="14.00">set_game</text>
</g>
<!-- SessionsController -->
<g id="node12" class="node"><title>SessionsController</title>
<path fill="none" stroke="black" d="M829,-684.5C829,-684.5 954,-684.5 954,-684.5 960,-684.5 966,-690.5 966,-696.5 966,-696.5 966,-810.5 966,-810.5 966,-816.5 960,-822.5 954,-822.5 954,-822.5 829,-822.5 829,-822.5 823,-822.5 817,-816.5 817,-810.5 817,-810.5 817,-696.5 817,-696.5 817,-690.5 823,-684.5 829,-684.5"/>
<text text-anchor="middle" x="891.5" y="-807.3" font-family="Times,serif" font-size="14.00">SessionsController</text>
<polyline fill="none" stroke="black" points="817,-799.5 966,-799.5 "/>
<text text-anchor="start" x="825" y="-784.3" font-family="Times,serif" font-size="14.00">create</text>
<text text-anchor="start" x="825" y="-769.3" font-family="Times,serif" font-size="14.00">create_by_google_oauth</text>
<text text-anchor="start" x="825" y="-754.3" font-family="Times,serif" font-size="14.00">destroy</text>
<text text-anchor="start" x="825" y="-739.3" font-family="Times,serif" font-size="14.00">new</text>
<polyline fill="none" stroke="black" points="817,-731.5 966,-731.5 "/>
<polyline fill="none" stroke="black" points="817,-707.5 966,-707.5 "/>
<text text-anchor="start" x="825" y="-692.3" font-family="Times,serif" font-size="14.00">_layout</text>
</g>
<!-- GamersController -->
<g id="node13" class="node"><title>GamersController</title>
<path fill="none" stroke="black" d="M715,-114.5C715,-114.5 806,-114.5 806,-114.5 812,-114.5 818,-120.5 818,-126.5 818,-126.5 818,-360.5 818,-360.5 818,-366.5 812,-372.5 806,-372.5 806,-372.5 715,-372.5 715,-372.5 709,-372.5 703,-366.5 703,-360.5 703,-360.5 703,-126.5 703,-126.5 703,-120.5 709,-114.5 715,-114.5"/>
<text text-anchor="middle" x="760.5" y="-357.3" font-family="Times,serif" font-size="14.00">GamersController</text>
<polyline fill="none" stroke="black" points="703,-349.5 818,-349.5 "/>
<text text-anchor="start" x="711" y="-334.3" font-family="Times,serif" font-size="14.00">create</text>
<text text-anchor="start" x="711" y="-319.3" font-family="Times,serif" font-size="14.00">destroy</text>
<text text-anchor="start" x="711" y="-304.3" font-family="Times,serif" font-size="14.00">edit</text>
<text text-anchor="start" x="711" y="-289.3" font-family="Times,serif" font-size="14.00">index</text>
<text text-anchor="start" x="711" y="-274.3" font-family="Times,serif" font-size="14.00">new</text>
<text text-anchor="start" x="711" y="-259.3" font-family="Times,serif" font-size="14.00">show</text>
<text text-anchor="start" x="711" y="-244.3" font-family="Times,serif" font-size="14.00">update</text>
<polyline fill="none" stroke="black" points="703,-236.5 818,-236.5 "/>
<polyline fill="none" stroke="black" points="703,-212.5 818,-212.5 "/>
<text text-anchor="start" x="711" y="-197.3" font-family="Times,serif" font-size="14.00">_layout</text>
<text text-anchor="start" x="711" y="-182.3" font-family="Times,serif" font-size="14.00">admin_user</text>
<text text-anchor="start" x="711" y="-167.3" font-family="Times,serif" font-size="14.00">check_attributes</text>
<text text-anchor="start" x="711" y="-152.3" font-family="Times,serif" font-size="14.00">correct_gamer</text>
<text text-anchor="start" x="711" y="-137.3" font-family="Times,serif" font-size="14.00">gamer_params</text>
<text text-anchor="start" x="711" y="-122.3" font-family="Times,serif" font-size="14.00">set_gamer</text>
</g>
<!-- MatchesController -->
<g id="node14" class="node"><title>MatchesController</title>
<path fill="none" stroke="black" d="M183,-646.5C183,-646.5 278,-646.5 278,-646.5 284,-646.5 290,-652.5 290,-658.5 290,-658.5 290,-877.5 290,-877.5 290,-883.5 284,-889.5 278,-889.5 278,-889.5 183,-889.5 183,-889.5 177,-889.5 171,-883.5 171,-877.5 171,-877.5 171,-658.5 171,-658.5 171,-652.5 177,-646.5 183,-646.5"/>
<text text-anchor="middle" x="230.5" y="-874.3" font-family="Times,serif" font-size="14.00">MatchesController</text>
<polyline fill="none" stroke="black" points="171,-866.5 290,-866.5 "/>
<text text-anchor="start" x="179" y="-851.3" font-family="Times,serif" font-size="14.00">create</text>
<text text-anchor="start" x="179" y="-836.3" font-family="Times,serif" font-size="14.00">destroy</text>
<text text-anchor="start" x="179" y="-821.3" font-family="Times,serif" font-size="14.00">edit</text>
<text text-anchor="start" x="179" y="-806.3" font-family="Times,serif" font-size="14.00">index</text>
<text text-anchor="start" x="179" y="-791.3" font-family="Times,serif" font-size="14.00">new</text>
<text text-anchor="start" x="179" y="-776.3" font-family="Times,serif" font-size="14.00">ragequit</text>
<text text-anchor="start" x="179" y="-761.3" font-family="Times,serif" font-size="14.00">register</text>
<text text-anchor="start" x="179" y="-746.3" font-family="Times,serif" font-size="14.00">show</text>
<text text-anchor="start" x="179" y="-731.3" font-family="Times,serif" font-size="14.00">update</text>
<polyline fill="none" stroke="black" points="171,-723.5 290,-723.5 "/>
<polyline fill="none" stroke="black" points="171,-699.5 290,-699.5 "/>
<text text-anchor="start" x="179" y="-684.3" font-family="Times,serif" font-size="14.00">_layout</text>
<text text-anchor="start" x="179" y="-669.3" font-family="Times,serif" font-size="14.00">match_params</text>
<text text-anchor="start" x="179" y="-654.3" font-family="Times,serif" font-size="14.00">set_match</text>
</g>
<!-- MessagesController -->
<g id="node15" class="node"><title>MessagesController</title>
<path fill="none" stroke="black" d="M335,-779.5C335,-779.5 436,-779.5 436,-779.5 442,-779.5 448,-785.5 448,-791.5 448,-791.5 448,-890.5 448,-890.5 448,-896.5 442,-902.5 436,-902.5 436,-902.5 335,-902.5 335,-902.5 329,-902.5 323,-896.5 323,-890.5 323,-890.5 323,-791.5 323,-791.5 323,-785.5 329,-779.5 335,-779.5"/>
<text text-anchor="middle" x="385.5" y="-887.3" font-family="Times,serif" font-size="14.00">MessagesController</text>
<polyline fill="none" stroke="black" points="323,-879.5 448,-879.5 "/>
<text text-anchor="start" x="331" y="-864.3" font-family="Times,serif" font-size="14.00">create</text>
<polyline fill="none" stroke="black" points="323,-856.5 448,-856.5 "/>
<polyline fill="none" stroke="black" points="323,-832.5 448,-832.5 "/>
<text text-anchor="start" x="331" y="-817.3" font-family="Times,serif" font-size="14.00">_layout</text>
<text text-anchor="start" x="331" y="-802.3" font-family="Times,serif" font-size="14.00">message_params</text>
<text text-anchor="start" x="331" y="-787.3" font-family="Times,serif" font-size="14.00">set_chatroom</text>
</g>
<!-- ChatroomUsersController -->
<g id="node16" class="node"><title>ChatroomUsersController</title>
<path fill="none" stroke="black" d="M297,-57.5C297,-57.5 431,-57.5 431,-57.5 437,-57.5 443,-63.5 443,-69.5 443,-69.5 443,-183.5 443,-183.5 443,-189.5 437,-195.5 431,-195.5 431,-195.5 297,-195.5 297,-195.5 291,-195.5 285,-189.5 285,-183.5 285,-183.5 285,-69.5 285,-69.5 285,-63.5 291,-57.5 297,-57.5"/>
<text text-anchor="middle" x="364" y="-180.3" font-family="Times,serif" font-size="14.00">ChatroomUsersController</text>
<polyline fill="none" stroke="black" points="285,-172.5 443,-172.5 "/>
<text text-anchor="start" x="293" y="-157.3" font-family="Times,serif" font-size="14.00">create</text>
<text text-anchor="start" x="293" y="-142.3" font-family="Times,serif" font-size="14.00">destroy</text>
<polyline fill="none" stroke="black" points="285,-134.5 443,-134.5 "/>
<polyline fill="none" stroke="black" points="285,-110.5 443,-110.5 "/>
<text text-anchor="start" x="293" y="-95.3" font-family="Times,serif" font-size="14.00">_layout</text>
<text text-anchor="start" x="293" y="-80.3" font-family="Times,serif" font-size="14.00">set_chatroom</text>
<text text-anchor="start" x="293" y="-65.3" font-family="Times,serif" font-size="14.00">set_parent</text>
</g>
<!-- AccountAttributesController -->
<g id="node17" class="node"><title>AccountAttributesController</title>
<path fill="none" stroke="black" d="M88,-19.5C88,-19.5 236,-19.5 236,-19.5 242,-19.5 248,-25.5 248,-31.5 248,-31.5 248,-205.5 248,-205.5 248,-211.5 242,-217.5 236,-217.5 236,-217.5 88,-217.5 88,-217.5 82,-217.5 76,-211.5 76,-205.5 76,-205.5 76,-31.5 76,-31.5 76,-25.5 82,-19.5 88,-19.5"/>
<text text-anchor="middle" x="162" y="-202.3" font-family="Times,serif" font-size="14.00">AccountAttributesController</text>
<polyline fill="none" stroke="black" points="76,-194.5 248,-194.5 "/>
<text text-anchor="start" x="84" y="-179.3" font-family="Times,serif" font-size="14.00">create</text>
<text text-anchor="start" x="84" y="-164.3" font-family="Times,serif" font-size="14.00">edit</text>
<text text-anchor="start" x="84" y="-149.3" font-family="Times,serif" font-size="14.00">index</text>
<text text-anchor="start" x="84" y="-134.3" font-family="Times,serif" font-size="14.00">new</text>
<text text-anchor="start" x="84" y="-119.3" font-family="Times,serif" font-size="14.00">update</text>
<polyline fill="none" stroke="black" points="76,-111.5 248,-111.5 "/>
<polyline fill="none" stroke="black" points="76,-87.5 248,-87.5 "/>
<text text-anchor="start" x="84" y="-72.3" font-family="Times,serif" font-size="14.00">_layout</text>
<text text-anchor="start" x="84" y="-57.3" font-family="Times,serif" font-size="14.00">gamer_params</text>
<text text-anchor="start" x="84" y="-42.3" font-family="Times,serif" font-size="14.00">get_gamer</text>
<text text-anchor="start" x="84" y="-27.3" font-family="Times,serif" font-size="14.00">valid_gamer</text>
</g>
<!-- InviteRequestsController -->
<g id="node18" class="node"><title>InviteRequestsController</title>
<path fill="none" stroke="black" d="M525,-304.5C525,-304.5 653,-304.5 653,-304.5 659,-304.5 665,-310.5 665,-316.5 665,-316.5 665,-535.5 665,-535.5 665,-541.5 659,-547.5 653,-547.5 653,-547.5 525,-547.5 525,-547.5 519,-547.5 513,-541.5 513,-535.5 513,-535.5 513,-316.5 513,-316.5 513,-310.5 519,-304.5 525,-304.5"/>
<text text-anchor="middle" x="589" y="-532.3" font-family="Times,serif" font-size="14.00">InviteRequestsController</text>
<polyline fill="none" stroke="black" points="513,-524.5 665,-524.5 "/>
<text text-anchor="start" x="521" y="-509.3" font-family="Times,serif" font-size="14.00">accept</text>
<text text-anchor="start" x="521" y="-494.3" font-family="Times,serif" font-size="14.00">create</text>
<text text-anchor="start" x="521" y="-479.3" font-family="Times,serif" font-size="14.00">destroy</text>
<text text-anchor="start" x="521" y="-464.3" font-family="Times,serif" font-size="14.00">edit</text>
<text text-anchor="start" x="521" y="-449.3" font-family="Times,serif" font-size="14.00">index</text>
<text text-anchor="start" x="521" y="-434.3" font-family="Times,serif" font-size="14.00">new</text>
<text text-anchor="start" x="521" y="-419.3" font-family="Times,serif" font-size="14.00">refuse</text>
<text text-anchor="start" x="521" y="-404.3" font-family="Times,serif" font-size="14.00">show</text>
<text text-anchor="start" x="521" y="-389.3" font-family="Times,serif" font-size="14.00">update</text>
<polyline fill="none" stroke="black" points="513,-381.5 665,-381.5 "/>
<polyline fill="none" stroke="black" points="513,-357.5 665,-357.5 "/>
<text text-anchor="start" x="521" y="-342.3" font-family="Times,serif" font-size="14.00">_layout</text>
<text text-anchor="start" x="521" y="-327.3" font-family="Times,serif" font-size="14.00">invite_request_params</text>
<text text-anchor="start" x="521" y="-312.3" font-family="Times,serif" font-size="14.00">set_invite_request</text>
</g>
<!-- TeamsController -->
<g id="node19" class="node"><title>TeamsController</title>
<path fill="none" stroke="black" d="M373,-228.5C373,-228.5 469,-228.5 469,-228.5 475,-228.5 481,-234.5 481,-240.5 481,-240.5 481,-504.5 481,-504.5 481,-510.5 475,-516.5 469,-516.5 469,-516.5 373,-516.5 373,-516.5 367,-516.5 361,-510.5 361,-504.5 361,-504.5 361,-240.5 361,-240.5 361,-234.5 367,-228.5 373,-228.5"/>
<text text-anchor="middle" x="421" y="-501.3" font-family="Times,serif" font-size="14.00">TeamsController</text>
<polyline fill="none" stroke="black" points="361,-493.5 481,-493.5 "/>
<text text-anchor="start" x="369" y="-478.3" font-family="Times,serif" font-size="14.00">add_challenge</text>
<text text-anchor="start" x="369" y="-463.3" font-family="Times,serif" font-size="14.00">create</text>
<text text-anchor="start" x="369" y="-448.3" font-family="Times,serif" font-size="14.00">destroy</text>
<text text-anchor="start" x="369" y="-433.3" font-family="Times,serif" font-size="14.00">edit</text>
<text text-anchor="start" x="369" y="-418.3" font-family="Times,serif" font-size="14.00">index</text>
<text text-anchor="start" x="369" y="-403.3" font-family="Times,serif" font-size="14.00">leave</text>
<text text-anchor="start" x="369" y="-388.3" font-family="Times,serif" font-size="14.00">new</text>
<text text-anchor="start" x="369" y="-373.3" font-family="Times,serif" font-size="14.00">send_invite</text>
<text text-anchor="start" x="369" y="-358.3" font-family="Times,serif" font-size="14.00">show</text>
<text text-anchor="start" x="369" y="-343.3" font-family="Times,serif" font-size="14.00">show_invites</text>
<text text-anchor="start" x="369" y="-328.3" font-family="Times,serif" font-size="14.00">update</text>
<polyline fill="none" stroke="black" points="361,-320.5 481,-320.5 "/>
<polyline fill="none" stroke="black" points="361,-296.5 481,-296.5 "/>
<text text-anchor="start" x="369" y="-281.3" font-family="Times,serif" font-size="14.00">_layout</text>
<text text-anchor="start" x="369" y="-266.3" font-family="Times,serif" font-size="14.00">can_be_challenged</text>
<text text-anchor="start" x="369" y="-251.3" font-family="Times,serif" font-size="14.00">set_team</text>
<text text-anchor="start" x="369" y="-236.3" font-family="Times,serif" font-size="14.00">team_params</text>
</g>
<!-- ArenaPagesController -->
<g id="node20" class="node"><title>ArenaPagesController</title>
<path fill="none" stroke="black" d="M487,-779.5C487,-779.5 600,-779.5 600,-779.5 606,-779.5 612,-785.5 612,-791.5 612,-791.5 612,-905.5 612,-905.5 612,-911.5 606,-917.5 600,-917.5 600,-917.5 487,-917.5 487,-917.5 481,-917.5 475,-911.5 475,-905.5 475,-905.5 475,-791.5 475,-791.5 475,-785.5 481,-779.5 487,-779.5"/>
<text text-anchor="middle" x="543.5" y="-902.3" font-family="Times,serif" font-size="14.00">ArenaPagesController</text>
<polyline fill="none" stroke="black" points="475,-894.5 612,-894.5 "/>
<text text-anchor="start" x="483" y="-879.3" font-family="Times,serif" font-size="14.00">arena</text>
<text text-anchor="start" x="483" y="-864.3" font-family="Times,serif" font-size="14.00">changerole</text>
<text text-anchor="start" x="483" y="-849.3" font-family="Times,serif" font-size="14.00">downgrade</text>
<text text-anchor="start" x="483" y="-834.3" font-family="Times,serif" font-size="14.00">upgrade</text>
<polyline fill="none" stroke="black" points="475,-826.5 612,-826.5 "/>
<polyline fill="none" stroke="black" points="475,-802.5 612,-802.5 "/>
<text text-anchor="start" x="483" y="-787.3" font-family="Times,serif" font-size="14.00">_layout</text>
</g>
</g>
</svg>
