<?xml version="1.0" encoding="UTF-8" standalone="no"?>
<!DOCTYPE svg PUBLIC "-//W3C//DTD SVG 1.1//EN"
 "http://www.w3.org/Graphics/SVG/1.1/DTD/svg11.dtd">
<!-- Generated by graphviz version 2.36.0 (20140111.2315)
 -->
<!-- Title: models_diagram Pages: 1 -->
<svg width="1292pt" height="1452pt"
 viewBox="0.00 0.00 1292.00 1452.00" xmlns="http://www.w3.org/2000/svg" xmlns:xlink="http://www.w3.org/1999/xlink">
<g id="graph0" class="graph" transform="scale(1 1) rotate(0) translate(4 1448)">
<title>models_diagram</title>
<polygon fill="none" stroke="none" points="-4,4 -4,-1448 1288,-1448 1288,4 -4,4"/>
<!-- _diagram_info -->
<g id="node1" class="node"><title>_diagram_info</title>
<text text-anchor="start" x="534" y="-1399.6" font-family="Times,serif" font-size="13.00">Models diagram</text>
<text text-anchor="start" x="534" y="-1385.6" font-family="Times,serif" font-size="13.00">Date: Sep 15 2018 &#45; 08:06</text>
<text text-anchor="start" x="534" y="-1371.6" font-family="Times,serif" font-size="13.00">Migration version: 20180904133446</text>
<text text-anchor="start" x="534" y="-1357.6" font-family="Times,serif" font-size="13.00">Generated by RailRoady 1.5.3</text>
<text text-anchor="start" x="534" y="-1343.6" font-family="Times,serif" font-size="13.00">http://railroady.prestonlee.com</text>
</g>
<!-- Game -->
<g id="node2" class="node"><title>Game</title>
<path fill="none" stroke="black" d="M770.5,-1307C770.5,-1307 877.5,-1307 877.5,-1307 883.5,-1307 889.5,-1313 889.5,-1319 889.5,-1319 889.5,-1431 889.5,-1431 889.5,-1437 883.5,-1443 877.5,-1443 877.5,-1443 770.5,-1443 770.5,-1443 764.5,-1443 758.5,-1437 758.5,-1431 758.5,-1431 758.5,-1319 758.5,-1319 758.5,-1313 764.5,-1307 770.5,-1307"/>
<text text-anchor="middle" x="824" y="-1427.8" font-family="Times,serif" font-size="14.00">Game</text>
<polyline fill="none" stroke="black" points="758.5,-1420 889.5,-1420 "/>
<text text-anchor="start" x="766.5" y="-1404.8" font-family="Times,serif" font-size="14.00">id :integer</text>
<text text-anchor="start" x="766.5" y="-1389.8" font-family="Times,serif" font-size="14.00">name :varchar</text>
<text text-anchor="start" x="766.5" y="-1374.8" font-family="Times,serif" font-size="14.00">created_at :datetime</text>
<text text-anchor="start" x="766.5" y="-1359.8" font-family="Times,serif" font-size="14.00">updated_at :datetime</text>
<text text-anchor="start" x="766.5" y="-1344.8" font-family="Times,serif" font-size="14.00">console_id :integer</text>
<text text-anchor="start" x="766.5" y="-1329.8" font-family="Times,serif" font-size="14.00">description :text</text>
<text text-anchor="start" x="766.5" y="-1314.8" font-family="Times,serif" font-size="14.00">logo :varchar</text>
</g>
<!-- Team -->
<g id="node4" class="node"><title>Team</title>
<path fill="none" stroke="black" d="M316.5,-1056.5C316.5,-1056.5 423.5,-1056.5 423.5,-1056.5 429.5,-1056.5 435.5,-1062.5 435.5,-1068.5 435.5,-1068.5 435.5,-1255.5 435.5,-1255.5 435.5,-1261.5 429.5,-1267.5 423.5,-1267.5 423.5,-1267.5 316.5,-1267.5 316.5,-1267.5 310.5,-1267.5 304.5,-1261.5 304.5,-1255.5 304.5,-1255.5 304.5,-1068.5 304.5,-1068.5 304.5,-1062.5 310.5,-1056.5 316.5,-1056.5"/>
<text text-anchor="middle" x="370" y="-1252.3" font-family="Times,serif" font-size="14.00">Team</text>
<polyline fill="none" stroke="black" points="304.5,-1244.5 435.5,-1244.5 "/>
<text text-anchor="start" x="312.5" y="-1229.3" font-family="Times,serif" font-size="14.00">id :integer</text>
<text text-anchor="start" x="312.5" y="-1214.3" font-family="Times,serif" font-size="14.00">name :varchar</text>
<text text-anchor="start" x="312.5" y="-1199.3" font-family="Times,serif" font-size="14.00">invite_id :integer</text>
<text text-anchor="start" x="312.5" y="-1184.3" font-family="Times,serif" font-size="14.00">match_id :integer</text>
<text text-anchor="start" x="312.5" y="-1169.3" font-family="Times,serif" font-size="14.00">challenge_id :integer</text>
<text text-anchor="start" x="312.5" y="-1154.3" font-family="Times,serif" font-size="14.00">created_at :datetime</text>
<text text-anchor="start" x="312.5" y="-1139.3" font-family="Times,serif" font-size="14.00">updated_at :datetime</text>
<text text-anchor="start" x="312.5" y="-1124.3" font-family="Times,serif" font-size="14.00">description :text</text>
<text text-anchor="start" x="312.5" y="-1109.3" font-family="Times,serif" font-size="14.00">avatar :varchar</text>
<text text-anchor="start" x="312.5" y="-1094.3" font-family="Times,serif" font-size="14.00">gamer_id :integer</text>
<text text-anchor="start" x="312.5" y="-1079.3" font-family="Times,serif" font-size="14.00">console_id :integer</text>
<text text-anchor="start" x="312.5" y="-1064.3" font-family="Times,serif" font-size="14.00">game_id :integer</text>
</g>
<!-- Game&#45;&gt;Team -->
<g id="edge1" class="edge"><title>Game&#45;&gt;Team</title>
<path fill="none" stroke="#8aa489" d="M751.584,-1308.24C750.391,-1307.47 749.196,-1306.73 748,-1306 650.663,-1246.89 524.805,-1205.25 445.719,-1182.69"/>
<ellipse fill="none" stroke="#8aa489" cx="755.059" cy="-1310.57" rx="4.00002" ry="4.00002"/>
<polygon fill="#8aa489" stroke="#8aa489" points="445.458,-1182.61 437.057,-1175.57 440.646,-1181.26 435.834,-1179.9 435.834,-1179.9 435.834,-1179.9 440.646,-1181.26 434.612,-1184.23 445.458,-1182.61 445.458,-1182.61"/>
</g>
<!-- Playing -->
<g id="node9" class="node"><title>Playing</title>
<path fill="none" stroke="black" d="M755.5,-168C755.5,-168 862.5,-168 862.5,-168 868.5,-168 874.5,-174 874.5,-180 874.5,-180 874.5,-262 874.5,-262 874.5,-268 868.5,-274 862.5,-274 862.5,-274 755.5,-274 755.5,-274 749.5,-274 743.5,-268 743.5,-262 743.5,-262 743.5,-180 743.5,-180 743.5,-174 749.5,-168 755.5,-168"/>
<text text-anchor="middle" x="809" y="-258.8" font-family="Times,serif" font-size="14.00">Playing</text>
<polyline fill="none" stroke="black" points="743.5,-251 874.5,-251 "/>
<text text-anchor="start" x="751.5" y="-235.8" font-family="Times,serif" font-size="14.00">id :integer</text>
<text text-anchor="start" x="751.5" y="-220.8" font-family="Times,serif" font-size="14.00">created_at :datetime</text>
<text text-anchor="start" x="751.5" y="-205.8" font-family="Times,serif" font-size="14.00">updated_at :datetime</text>
<text text-anchor="start" x="751.5" y="-190.8" font-family="Times,serif" font-size="14.00">game_id :integer</text>
<text text-anchor="start" x="751.5" y="-175.8" font-family="Times,serif" font-size="14.00">group_id :integer</text>
</g>
<!-- Game&#45;&gt;Playing -->
<g id="edge2" class="edge"><title>Game&#45;&gt;Playing</title>
<path fill="none" stroke="#c114c9" d="M865.142,-1299.1C883.039,-1259.78 900,-1210.09 900,-1163 900,-1163 900,-1163 900,-410 900,-364.37 878.013,-318.174 855.654,-282.994"/>
<ellipse fill="none" stroke="#c114c9" cx="863.24" cy="-1303.19" rx="4.00002" ry="4.00002"/>
<polygon fill="#c114c9" stroke="#c114c9" points="855.441,-282.668 853.743,-271.835 852.708,-278.481 849.974,-274.294 849.974,-274.294 849.974,-274.294 852.708,-278.481 846.206,-276.754 855.441,-282.668 855.441,-282.668"/>
</g>
<!-- Group -->
<g id="node10" class="node"><title>Group</title>
<path fill="none" stroke="black" d="M468.5,-320.5C468.5,-320.5 575.5,-320.5 575.5,-320.5 581.5,-320.5 587.5,-326.5 587.5,-332.5 587.5,-332.5 587.5,-489.5 587.5,-489.5 587.5,-495.5 581.5,-501.5 575.5,-501.5 575.5,-501.5 468.5,-501.5 468.5,-501.5 462.5,-501.5 456.5,-495.5 456.5,-489.5 456.5,-489.5 456.5,-332.5 456.5,-332.5 456.5,-326.5 462.5,-320.5 468.5,-320.5"/>
<text text-anchor="middle" x="522" y="-486.3" font-family="Times,serif" font-size="14.00">Group</text>
<polyline fill="none" stroke="black" points="456.5,-478.5 587.5,-478.5 "/>
<text text-anchor="start" x="464.5" y="-463.3" font-family="Times,serif" font-size="14.00">id :integer</text>
<text text-anchor="start" x="464.5" y="-448.3" font-family="Times,serif" font-size="14.00">name :varchar</text>
<text text-anchor="start" x="464.5" y="-433.3" font-family="Times,serif" font-size="14.00">region :varchar</text>
<text text-anchor="start" x="464.5" y="-418.3" font-family="Times,serif" font-size="14.00">game_id :integer</text>
<text text-anchor="start" x="464.5" y="-403.3" font-family="Times,serif" font-size="14.00">created_at :datetime</text>
<text text-anchor="start" x="464.5" y="-388.3" font-family="Times,serif" font-size="14.00">updated_at :datetime</text>
<text text-anchor="start" x="464.5" y="-373.3" font-family="Times,serif" font-size="14.00">member_id :integer</text>
<text text-anchor="start" x="464.5" y="-358.3" font-family="Times,serif" font-size="14.00">description :text</text>
<text text-anchor="start" x="464.5" y="-343.3" font-family="Times,serif" font-size="14.00">creator_id :integer</text>
<text text-anchor="start" x="464.5" y="-328.3" font-family="Times,serif" font-size="14.00">console_id :integer</text>
</g>
<!-- Game&#45;&gt;Group -->
<g id="edge3" class="edge"><title>Game&#45;&gt;Group</title>
<path fill="none" stroke="#1e92a2" d="M844.711,-1296.74C853.608,-1257.07 862,-1207.78 862,-1163 862,-1163 862,-1163 862,-593 862,-474.043 697.826,-433.01 597.642,-419.045"/>
<polygon fill="#1e92a2" stroke="#1e92a2" points="844.683,-1296.87 838.058,-1305.6 843.563,-1301.74 842.443,-1306.61 842.443,-1306.61 842.443,-1306.61 843.563,-1301.74 846.829,-1307.62 844.683,-1296.87 844.683,-1296.87"/>
<polygon fill="#1e92a2" stroke="#1e92a2" points="597.468,-419.022 588.15,-413.24 592.512,-418.361 587.555,-417.7 587.555,-417.7 587.555,-417.7 592.512,-418.361 586.961,-422.161 597.468,-419.022 597.468,-419.022"/>
</g>
<!-- Gamer -->
<g id="node11" class="node"><title>Gamer</title>
<path fill="none" stroke="black" d="M234,-687C234,-687 370,-687 370,-687 376,-687 382,-693 382,-699 382,-699 382,-991 382,-991 382,-997 376,-1003 370,-1003 370,-1003 234,-1003 234,-1003 228,-1003 222,-997 222,-991 222,-991 222,-699 222,-699 222,-693 228,-687 234,-687"/>
<text text-anchor="middle" x="302" y="-987.8" font-family="Times,serif" font-size="14.00">Gamer</text>
<polyline fill="none" stroke="black" points="222,-980 382,-980 "/>
<text text-anchor="start" x="230" y="-964.8" font-family="Times,serif" font-size="14.00">id :integer</text>
<text text-anchor="start" x="230" y="-949.8" font-family="Times,serif" font-size="14.00">username :varchar</text>
<text text-anchor="start" x="230" y="-934.8" font-family="Times,serif" font-size="14.00">email :varchar</text>
<text text-anchor="start" x="230" y="-919.8" font-family="Times,serif" font-size="14.00">created_at :datetime</text>
<text text-anchor="start" x="230" y="-904.8" font-family="Times,serif" font-size="14.00">updated_at :datetime</text>
<text text-anchor="start" x="230" y="-889.8" font-family="Times,serif" font-size="14.00">password_digest :varchar</text>
<text text-anchor="start" x="230" y="-874.8" font-family="Times,serif" font-size="14.00">remember_digest :varchar</text>
<text text-anchor="start" x="230" y="-859.8" font-family="Times,serif" font-size="14.00">activation_digest :varchar</text>
<text text-anchor="start" x="230" y="-844.8" font-family="Times,serif" font-size="14.00">activated :boolean</text>
<text text-anchor="start" x="230" y="-829.8" font-family="Times,serif" font-size="14.00">activated_at :datetime</text>
<text text-anchor="start" x="230" y="-814.8" font-family="Times,serif" font-size="14.00">reset_digest :varchar</text>
<text text-anchor="start" x="230" y="-799.8" font-family="Times,serif" font-size="14.00">reset_sent_at :datetime</text>
<text text-anchor="start" x="230" y="-784.8" font-family="Times,serif" font-size="14.00">nation :varchar</text>
<text text-anchor="start" x="230" y="-769.8" font-family="Times,serif" font-size="14.00">nickname :varchar</text>
<text text-anchor="start" x="230" y="-754.8" font-family="Times,serif" font-size="14.00">team_id :integer</text>
<text text-anchor="start" x="230" y="-739.8" font-family="Times,serif" font-size="14.00">updated :boolean</text>
<text text-anchor="start" x="230" y="-724.8" font-family="Times,serif" font-size="14.00">role :integer</text>
<text text-anchor="start" x="230" y="-709.8" font-family="Times,serif" font-size="14.00">description :text</text>
<text text-anchor="start" x="230" y="-694.8" font-family="Times,serif" font-size="14.00">group_id :integer</text>
</g>
<!-- Game&#45;&gt;Gamer -->
<g id="edge5" class="edge"><title>Game&#45;&gt;Gamer</title>
<path fill="none" stroke="#16b8b0" d="M748.959,-1306.42C748.64,-1306.28 748.32,-1306.14 748,-1306 655.431,-1266.11 366.292,-1340.25 296,-1268 232.225,-1202.45 232.064,-1100.51 248.647,-1013.24"/>
<polygon fill="#16b8b0" stroke="#16b8b0" points="749.152,-1306.52 756.057,-1315.04 753.617,-1308.77 758.082,-1311.02 758.082,-1311.02 758.082,-1311.02 753.617,-1308.77 760.107,-1307 749.152,-1306.52 749.152,-1306.52"/>
<polygon fill="#16b8b0" stroke="#16b8b0" points="248.689,-1013.02 255.05,-1004.09 249.662,-1008.12 250.636,-1003.21 250.636,-1003.21 250.636,-1003.21 249.662,-1008.12 246.222,-1002.34 248.689,-1013.02 248.689,-1013.02"/>
</g>
<!-- GamersGame -->
<g id="node14" class="node"><title>GamersGame</title>
<path fill="none" stroke="black" d="M685.5,-541C685.5,-541 792.5,-541 792.5,-541 798.5,-541 804.5,-547 804.5,-553 804.5,-553 804.5,-635 804.5,-635 804.5,-641 798.5,-647 792.5,-647 792.5,-647 685.5,-647 685.5,-647 679.5,-647 673.5,-641 673.5,-635 673.5,-635 673.5,-553 673.5,-553 673.5,-547 679.5,-541 685.5,-541"/>
<text text-anchor="middle" x="739" y="-631.8" font-family="Times,serif" font-size="14.00">GamersGame</text>
<polyline fill="none" stroke="black" points="673.5,-624 804.5,-624 "/>
<text text-anchor="start" x="681.5" y="-608.8" font-family="Times,serif" font-size="14.00">id :integer</text>
<text text-anchor="start" x="681.5" y="-593.8" font-family="Times,serif" font-size="14.00">created_at :datetime</text>
<text text-anchor="start" x="681.5" y="-578.8" font-family="Times,serif" font-size="14.00">updated_at :datetime</text>
<text text-anchor="start" x="681.5" y="-563.8" font-family="Times,serif" font-size="14.00">game_id :integer</text>
<text text-anchor="start" x="681.5" y="-548.8" font-family="Times,serif" font-size="14.00">gamer_id :integer</text>
</g>
<!-- Game&#45;&gt;GamersGame -->
<g id="edge4" class="edge"><title>Game&#45;&gt;GamersGame</title>
<path fill="none" stroke="#7e4c5b" d="M827.299,-1298.64C833.162,-1144.32 841.517,-797.47 804,-686 800.539,-675.716 795.491,-665.585 789.713,-656.03"/>
<ellipse fill="none" stroke="#7e4c5b" cx="827.141" cy="-1302.74" rx="4" ry="4"/>
<polygon fill="#7e4c5b" stroke="#7e4c5b" points="789.605,-655.86 788.021,-645.009 786.916,-651.645 784.228,-647.429 784.228,-647.429 784.228,-647.429 786.916,-651.645 780.434,-649.849 789.605,-655.86 789.605,-655.86"/>
</g>
<!-- Match -->
<g id="node3" class="node"><title>Match</title>
<path fill="none" stroke="black" d="M450,-769.5C450,-769.5 590,-769.5 590,-769.5 596,-769.5 602,-775.5 602,-781.5 602,-781.5 602,-908.5 602,-908.5 602,-914.5 596,-920.5 590,-920.5 590,-920.5 450,-920.5 450,-920.5 444,-920.5 438,-914.5 438,-908.5 438,-908.5 438,-781.5 438,-781.5 438,-775.5 444,-769.5 450,-769.5"/>
<text text-anchor="middle" x="520" y="-905.3" font-family="Times,serif" font-size="14.00">Match</text>
<polyline fill="none" stroke="black" points="438,-897.5 602,-897.5 "/>
<text text-anchor="start" x="446" y="-882.3" font-family="Times,serif" font-size="14.00">id :integer</text>
<text text-anchor="start" x="446" y="-867.3" font-family="Times,serif" font-size="14.00">created_at :datetime</text>
<text text-anchor="start" x="446" y="-852.3" font-family="Times,serif" font-size="14.00">updated_at :datetime</text>
<text text-anchor="start" x="446" y="-837.3" font-family="Times,serif" font-size="14.00">team_id :integer</text>
<text text-anchor="start" x="446" y="-822.3" font-family="Times,serif" font-size="14.00">matching_team_id :integer</text>
<text text-anchor="start" x="446" y="-807.3" font-family="Times,serif" font-size="14.00">score :integer</text>
<text text-anchor="start" x="446" y="-792.3" font-family="Times,serif" font-size="14.00">mat_score :integer</text>
<text text-anchor="start" x="446" y="-777.3" font-family="Times,serif" font-size="14.00">disputed :boolean</text>
</g>
<!-- Team&#45;&gt;Match -->
<g id="edge11" class="edge"><title>Team&#45;&gt;Match</title>
<path fill="none" stroke="#733af9" d="M423.441,-1048.77C442.125,-1009.54 462.761,-966.203 480.142,-929.702"/>
<ellipse fill="none" stroke="#733af9" cx="421.668" cy="-1052.5" rx="4.00002" ry="4.00002"/>
<polygon fill="#733af9" stroke="#733af9" points="480.188,-929.604 488.551,-922.51 482.338,-925.09 484.488,-920.576 484.488,-920.576 484.488,-920.576 482.338,-925.09 480.425,-918.641 480.188,-929.604 480.188,-929.604"/>
</g>
<!-- Team&#45;&gt;Team -->
<g id="edge12" class="edge"><title>Team&#45;&gt;Team</title>
<path fill="none" stroke="#5112c2" d="M445.717,-1170.04C450.269,-1168.12 453,-1165.44 453,-1162 453,-1158.56 450.269,-1155.88 445.717,-1153.96"/>
<polygon fill="#5112c2" stroke="#5112c2" points="445.424,-1170.11 434.609,-1168.3 440.588,-1171.38 435.753,-1172.65 435.753,-1172.65 435.753,-1172.65 440.588,-1171.38 436.896,-1177.01 445.424,-1170.11 445.424,-1170.11"/>
<polygon fill="#5112c2" stroke="#5112c2" points="445.424,-1153.89 436.896,-1146.99 440.588,-1152.62 435.753,-1151.35 435.753,-1151.35 435.753,-1151.35 440.588,-1152.62 434.609,-1155.7 445.424,-1153.89 445.424,-1153.89"/>
<text text-anchor="middle" x="498.5" y="-1158.3" font-family="Times,serif" font-size="14.00">matching_teams</text>
</g>
<!-- Team&#45;&gt;Team -->
<g id="edge14" class="edge"><title>Team&#45;&gt;Team</title>
<path fill="none" stroke="#cbcfac" d="M445.814,-1184.32C493.496,-1188.04 544,-1180.6 544,-1162 544,-1143.4 493.496,-1135.96 445.814,-1139.68"/>
<polygon fill="#cbcfac" stroke="#cbcfac" points="445.657,-1184.31 436.128,-1178.88 440.679,-1183.83 435.702,-1183.36 435.702,-1183.36 435.702,-1183.36 440.679,-1183.83 435.275,-1187.84 445.657,-1184.31 445.657,-1184.31"/>
<polygon fill="#cbcfac" stroke="#cbcfac" points="445.657,-1139.69 435.275,-1136.16 440.679,-1140.17 435.702,-1140.64 435.702,-1140.64 435.702,-1140.64 440.679,-1140.17 436.128,-1145.12 445.657,-1139.69 445.657,-1139.69"/>
<text text-anchor="middle" x="595.5" y="-1158.3" font-family="Times,serif" font-size="14.00">challenging_teams</text>
</g>
<!-- InviteRequest -->
<g id="node8" class="node"><title>InviteRequest</title>
<path fill="none" stroke="black" d="M40.5,-541C40.5,-541 147.5,-541 147.5,-541 153.5,-541 159.5,-547 159.5,-553 159.5,-553 159.5,-635 159.5,-635 159.5,-641 153.5,-647 147.5,-647 147.5,-647 40.5,-647 40.5,-647 34.5,-647 28.5,-641 28.5,-635 28.5,-635 28.5,-553 28.5,-553 28.5,-547 34.5,-541 40.5,-541"/>
<text text-anchor="middle" x="94" y="-631.8" font-family="Times,serif" font-size="14.00">InviteRequest</text>
<polyline fill="none" stroke="black" points="28.5,-624 159.5,-624 "/>
<text text-anchor="start" x="36.5" y="-608.8" font-family="Times,serif" font-size="14.00">id :integer</text>
<text text-anchor="start" x="36.5" y="-593.8" font-family="Times,serif" font-size="14.00">created_at :datetime</text>
<text text-anchor="start" x="36.5" y="-578.8" font-family="Times,serif" font-size="14.00">updated_at :datetime</text>
<text text-anchor="start" x="36.5" y="-563.8" font-family="Times,serif" font-size="14.00">team_id :integer</text>
<text text-anchor="start" x="36.5" y="-548.8" font-family="Times,serif" font-size="14.00">gamer_id :integer</text>
</g>
<!-- Team&#45;&gt;InviteRequest -->
<g id="edge9" class="edge"><title>Team&#45;&gt;InviteRequest</title>
<path fill="none" stroke="#3a9de1" d="M298.502,-1103.83C268.351,-1076.45 235.174,-1041.48 213,-1004 146.757,-892.039 115.362,-740.823 102.203,-657.168"/>
<ellipse fill="none" stroke="#3a9de1" cx="301.511" cy="-1106.53" rx="4.00002" ry="4.00002"/>
<polygon fill="#3a9de1" stroke="#3a9de1" points="102.169,-656.945 105.098,-646.377 101.409,-652.003 100.65,-647.061 100.65,-647.061 100.65,-647.061 101.409,-652.003 96.2023,-647.744 102.169,-656.945 102.169,-656.945"/>
</g>
<!-- Team&#45;&gt;Gamer -->
<g id="edge7" class="edge"><title>Team&#45;&gt;Gamer</title>
<path fill="none" stroke="#d0fa80" d="M353.17,-1048.52C351.528,-1039.53 349.8,-1030.6 348,-1022 347.252,-1018.43 346.478,-1014.82 345.681,-1011.18"/>
<ellipse fill="none" stroke="#d0fa80" cx="353.883" cy="-1052.5" rx="4.00001" ry="4.00001"/>
<ellipse fill="#d0fa80" stroke="#d0fa80" cx="344.771" cy="-1007.09" rx="4.00001" ry="4.00001"/>
<text text-anchor="middle" x="363.5" y="-1026.3" font-family="Times,serif" font-size="14.00">boss</text>
</g>
<!-- Team&#45;&gt;Gamer -->
<g id="edge8" class="edge"><title>Team&#45;&gt;Gamer</title>
<path fill="none" stroke="#27f2ed" d="M300.809,-1063.74C296.905,-1055.3 293.543,-1046.66 291,-1038 288.635,-1029.94 286.841,-1021.61 285.528,-1013.14"/>
<ellipse fill="none" stroke="#27f2ed" cx="302.63" cy="-1067.5" rx="4.00002" ry="4.00002"/>
<polygon fill="#27f2ed" stroke="#27f2ed" points="285.517,-1013.06 288.664,-1002.55 284.86,-1008.1 284.203,-1003.15 284.203,-1003.15 284.203,-1003.15 284.86,-1008.1 279.742,-1003.74 285.517,-1013.06 285.517,-1013.06"/>
</g>
<!-- Team&#45;&gt;Gamer -->
<g id="edge10" class="edge"><title>Team&#45;&gt;Gamer</title>
<path fill="none" stroke="#1c1f8d" d="M309.381,-1046.52C308.519,-1043.68 307.723,-1040.83 307,-1038 304.942,-1029.93 303.238,-1021.61 301.838,-1013.16"/>
<polygon fill="#1c1f8d" stroke="#1c1f8d" points="309.435,-1046.68 308.274,-1057.59 310.992,-1051.43 312.55,-1056.19 312.55,-1056.19 312.55,-1056.19 310.992,-1051.43 316.826,-1054.78 309.435,-1046.68 309.435,-1046.68"/>
<polygon fill="#1c1f8d" stroke="#1c1f8d" points="301.826,-1013.08 304.782,-1002.52 301.079,-1008.13 300.332,-1003.19 300.332,-1003.19 300.332,-1003.19 301.079,-1008.13 295.883,-1003.86 301.826,-1013.08 301.826,-1013.08"/>
<text text-anchor="middle" x="325.5" y="-1026.3" font-family="Times,serif" font-size="14.00">invites</text>
</g>
<!-- Challenge -->
<g id="node12" class="node"><title>Challenge</title>
<path fill="none" stroke="black" d="M632,-792C632,-792 784,-792 784,-792 790,-792 796,-798 796,-804 796,-804 796,-886 796,-886 796,-892 790,-898 784,-898 784,-898 632,-898 632,-898 626,-898 620,-892 620,-886 620,-886 620,-804 620,-804 620,-798 626,-792 632,-792"/>
<text text-anchor="middle" x="708" y="-882.8" font-family="Times,serif" font-size="14.00">Challenge</text>
<polyline fill="none" stroke="black" points="620,-875 796,-875 "/>
<text text-anchor="start" x="628" y="-859.8" font-family="Times,serif" font-size="14.00">id :integer</text>
<text text-anchor="start" x="628" y="-844.8" font-family="Times,serif" font-size="14.00">created_at :datetime</text>
<text text-anchor="start" x="628" y="-829.8" font-family="Times,serif" font-size="14.00">updated_at :datetime</text>
<text text-anchor="start" x="628" y="-814.8" font-family="Times,serif" font-size="14.00">team_id :integer</text>
<text text-anchor="start" x="628" y="-799.8" font-family="Times,serif" font-size="14.00">challenging_team_id :integer</text>
</g>
<!-- Team&#45;&gt;Challenge -->
<g id="edge13" class="edge"><title>Team&#45;&gt;Challenge</title>
<path fill="none" stroke="#8c3be8" d="M442.87,-1124.74C494.116,-1096.73 562.012,-1054.32 611,-1004 638.486,-975.767 661.865,-938.407 678.781,-907.104"/>
<ellipse fill="none" stroke="#8c3be8" cx="439.27" cy="-1126.69" rx="4.00002" ry="4.00002"/>
<polygon fill="#8c3be8" stroke="#8c3be8" points="678.911,-906.859 687.574,-900.135 681.255,-902.442 683.599,-898.026 683.599,-898.026 683.599,-898.026 681.255,-902.442 679.624,-895.916 678.911,-906.859 678.911,-906.859"/>
</g>
<!-- Chatroom -->
<g id="node17" class="node"><title>Chatroom</title>
<path fill="none" stroke="black" d="M172.5,-160.5C172.5,-160.5 279.5,-160.5 279.5,-160.5 285.5,-160.5 291.5,-166.5 291.5,-172.5 291.5,-172.5 291.5,-269.5 291.5,-269.5 291.5,-275.5 285.5,-281.5 279.5,-281.5 279.5,-281.5 172.5,-281.5 172.5,-281.5 166.5,-281.5 160.5,-275.5 160.5,-269.5 160.5,-269.5 160.5,-172.5 160.5,-172.5 160.5,-166.5 166.5,-160.5 172.5,-160.5"/>
<text text-anchor="middle" x="226" y="-266.3" font-family="Times,serif" font-size="14.00">Chatroom</text>
<polyline fill="none" stroke="black" points="160.5,-258.5 291.5,-258.5 "/>
<text text-anchor="start" x="168.5" y="-243.3" font-family="Times,serif" font-size="14.00">id :integer</text>
<text text-anchor="start" x="168.5" y="-228.3" font-family="Times,serif" font-size="14.00">name :varchar</text>
<text text-anchor="start" x="168.5" y="-213.3" font-family="Times,serif" font-size="14.00">created_at :datetime</text>
<text text-anchor="start" x="168.5" y="-198.3" font-family="Times,serif" font-size="14.00">updated_at :datetime</text>
<text text-anchor="start" x="168.5" y="-183.3" font-family="Times,serif" font-size="14.00">group_id :integer</text>
<text text-anchor="start" x="168.5" y="-168.3" font-family="Times,serif" font-size="14.00">team_id :integer</text>
</g>
<!-- Team&#45;&gt;Chatroom -->
<g id="edge6" class="edge"><title>Team&#45;&gt;Chatroom</title>
<path fill="none" stroke="#d50fe3" d="M296.655,-1136.33C188.784,-1094.87 0,-1000.27 0,-846 0,-846 0,-846 0,-410 0,-329.858 85.0314,-277.298 150.78,-248.637"/>
<ellipse fill="none" stroke="#d50fe3" cx="300.538" cy="-1137.81" rx="4.00001" ry="4.00001"/>
<polygon fill="#d50fe3" stroke="#d50fe3" points="151.124,-248.49 162.087,-248.723 155.726,-246.536 160.328,-244.581 160.328,-244.581 160.328,-244.581 155.726,-246.536 158.569,-240.439 151.124,-248.49 151.124,-248.49"/>
</g>
<!-- Nation -->
<g id="node5" class="node"><title>Nation</title>
<path fill="none" stroke="black" d="M919.5,-1322C919.5,-1322 1026.5,-1322 1026.5,-1322 1032.5,-1322 1038.5,-1328 1038.5,-1334 1038.5,-1334 1038.5,-1416 1038.5,-1416 1038.5,-1422 1032.5,-1428 1026.5,-1428 1026.5,-1428 919.5,-1428 919.5,-1428 913.5,-1428 907.5,-1422 907.5,-1416 907.5,-1416 907.5,-1334 907.5,-1334 907.5,-1328 913.5,-1322 919.5,-1322"/>
<text text-anchor="middle" x="973" y="-1412.8" font-family="Times,serif" font-size="14.00">Nation</text>
<polyline fill="none" stroke="black" points="907.5,-1405 1038.5,-1405 "/>
<text text-anchor="start" x="915.5" y="-1389.8" font-family="Times,serif" font-size="14.00">id :integer</text>
<text text-anchor="start" x="915.5" y="-1374.8" font-family="Times,serif" font-size="14.00">name :varchar</text>
<text text-anchor="start" x="915.5" y="-1359.8" font-family="Times,serif" font-size="14.00">code :varchar</text>
<text text-anchor="start" x="915.5" y="-1344.8" font-family="Times,serif" font-size="14.00">created_at :datetime</text>
<text text-anchor="start" x="915.5" y="-1329.8" font-family="Times,serif" font-size="14.00">updated_at :datetime</text>
</g>
<!-- Message -->
<g id="node6" class="node"><title>Message</title>
<path fill="none" stroke="black" d="M256.5,-0.5C256.5,-0.5 363.5,-0.5 363.5,-0.5 369.5,-0.5 375.5,-6.5 375.5,-12.5 375.5,-12.5 375.5,-109.5 375.5,-109.5 375.5,-115.5 369.5,-121.5 363.5,-121.5 363.5,-121.5 256.5,-121.5 256.5,-121.5 250.5,-121.5 244.5,-115.5 244.5,-109.5 244.5,-109.5 244.5,-12.5 244.5,-12.5 244.5,-6.5 250.5,-0.5 256.5,-0.5"/>
<text text-anchor="middle" x="310" y="-106.3" font-family="Times,serif" font-size="14.00">Message</text>
<polyline fill="none" stroke="black" points="244.5,-98.5 375.5,-98.5 "/>
<text text-anchor="start" x="252.5" y="-83.3" font-family="Times,serif" font-size="14.00">id :integer</text>
<text text-anchor="start" x="252.5" y="-68.3" font-family="Times,serif" font-size="14.00">chatroom_id :integer</text>
<text text-anchor="start" x="252.5" y="-53.3" font-family="Times,serif" font-size="14.00">gamer_id :integer</text>
<text text-anchor="start" x="252.5" y="-38.3" font-family="Times,serif" font-size="14.00">body :text</text>
<text text-anchor="start" x="252.5" y="-23.3" font-family="Times,serif" font-size="14.00">created_at :datetime</text>
<text text-anchor="start" x="252.5" y="-8.3" font-family="Times,serif" font-size="14.00">updated_at :datetime</text>
</g>
<!-- Ability -->
<g id="node7" class="node"><title>Ability</title>
<polygon fill="none" stroke="black" points="1056.5,-1352 1056.5,-1398 1111.5,-1398 1111.5,-1352 1056.5,-1352"/>
<text text-anchor="middle" x="1084" y="-1382.8" font-family="Times,serif" font-size="14.00">Ability</text>
<polyline fill="none" stroke="black" points="1056.5,-1375 1111.5,-1375 "/>
<text text-anchor="middle" x="1084" y="-1359.8" font-family="Times,serif" font-size="14.00"> </text>
</g>
<!-- Group&#45;&gt;Playing -->
<g id="edge16" class="edge"><title>Group&#45;&gt;Playing</title>
<path fill="none" stroke="#c82e56" d="M594.788,-362.32C637.703,-334.209 691.866,-298.729 734.992,-270.479"/>
<ellipse fill="none" stroke="#c82e56" cx="591.19" cy="-364.677" rx="4.00002" ry="4.00002"/>
<polygon fill="#c82e56" stroke="#c82e56" points="735.098,-270.41 745.929,-268.695 739.28,-267.67 743.463,-264.93 743.463,-264.93 743.463,-264.93 739.28,-267.67 740.997,-261.166 735.098,-270.41 735.098,-270.41"/>
</g>
<!-- Group&#45;&gt;Gamer -->
<g id="edge18" class="edge"><title>Group&#45;&gt;Gamer</title>
<path fill="none" stroke="#16325c" d="M448.192,-499.574C447.133,-500.399 446.069,-501.208 445,-502 411.092,-527.112 384.221,-506.942 358,-540 348.563,-551.898 336.523,-612.704 326.027,-676.844"/>
<polygon fill="#16325c" stroke="#16325c" points="448.491,-499.327 459.065,-496.424 452.344,-496.142 456.198,-492.956 456.198,-492.956 456.198,-492.956 452.344,-496.142 453.331,-489.488 448.491,-499.327 448.491,-499.327"/>
<polygon fill="#16325c" stroke="#16325c" points="326.023,-676.871 319.982,-686.022 325.224,-681.806 324.424,-686.742 324.424,-686.742 324.424,-686.742 325.224,-681.806 328.866,-687.462 326.023,-676.871 326.023,-676.871"/>
<text text-anchor="middle" x="384" y="-590.3" font-family="Times,serif" font-size="14.00">members</text>
</g>
<!-- GamersGroup -->
<g id="node13" class="node"><title>GamersGroup</title>
<path fill="none" stroke="black" d="M515.5,-168C515.5,-168 622.5,-168 622.5,-168 628.5,-168 634.5,-174 634.5,-180 634.5,-180 634.5,-262 634.5,-262 634.5,-268 628.5,-274 622.5,-274 622.5,-274 515.5,-274 515.5,-274 509.5,-274 503.5,-268 503.5,-262 503.5,-262 503.5,-180 503.5,-180 503.5,-174 509.5,-168 515.5,-168"/>
<text text-anchor="middle" x="569" y="-258.8" font-family="Times,serif" font-size="14.00">GamersGroup</text>
<polyline fill="none" stroke="black" points="503.5,-251 634.5,-251 "/>
<text text-anchor="start" x="511.5" y="-235.8" font-family="Times,serif" font-size="14.00">id :integer</text>
<text text-anchor="start" x="511.5" y="-220.8" font-family="Times,serif" font-size="14.00">gamer_id :integer</text>
<text text-anchor="start" x="511.5" y="-205.8" font-family="Times,serif" font-size="14.00">group_id :integer</text>
<text text-anchor="start" x="511.5" y="-190.8" font-family="Times,serif" font-size="14.00">created_at :datetime</text>
<text text-anchor="start" x="511.5" y="-175.8" font-family="Times,serif" font-size="14.00">updated_at :datetime</text>
</g>
<!-- Group&#45;&gt;GamersGroup -->
<g id="edge17" class="edge"><title>Group&#45;&gt;GamersGroup</title>
<path fill="none" stroke="#d157cf" d="M546.355,-312.579C548.795,-302.822 551.222,-293.114 553.531,-283.876"/>
<ellipse fill="none" stroke="#d157cf" cx="545.369" cy="-316.524" rx="4.00001" ry="4.00001"/>
<polygon fill="#d157cf" stroke="#d157cf" points="553.56,-283.758 560.352,-275.148 554.773,-278.907 555.986,-274.056 555.986,-274.056 555.986,-274.056 554.773,-278.907 551.62,-272.965 553.56,-283.758 553.56,-283.758"/>
</g>
<!-- Group&#45;&gt;Chatroom -->
<g id="edge15" class="edge"><title>Group&#45;&gt;Chatroom</title>
<path fill="none" stroke="#4b4a5e" d="M449.936,-323.836C448.303,-322.519 446.657,-321.239 445,-320 401.641,-287.587 345.863,-262.827 301.451,-246.303"/>
<ellipse fill="none" stroke="#4b4a5e" cx="453.108" cy="-326.509" rx="4.00002" ry="4.00002"/>
<polygon fill="#4b4a5e" stroke="#4b4a5e" points="301.259,-246.233 293.413,-238.573 296.564,-244.516 291.868,-242.799 291.868,-242.799 291.868,-242.799 296.564,-244.516 290.322,-247.025 301.259,-246.233 301.259,-246.233"/>
</g>
<!-- Gamer&#45;&gt;Message -->
<g id="edge21" class="edge"><title>Gamer&#45;&gt;Message</title>
<path fill="none" stroke="#f4cae0" d="M296.292,-678.877C293.749,-575.684 292.269,-440.05 297,-320 297.667,-303.072 298.949,-298.909 300,-282 303.119,-231.834 305.672,-175.176 307.418,-131.923"/>
<ellipse fill="none" stroke="#f4cae0" cx="296.392" cy="-682.876" rx="4" ry="4"/>
<polygon fill="#f4cae0" stroke="#f4cae0" points="307.423,-131.781 312.318,-121.968 307.622,-126.784 307.822,-121.788 307.822,-121.788 307.822,-121.788 307.622,-126.784 303.325,-121.609 307.423,-131.781 307.423,-131.781"/>
</g>
<!-- Gamer&#45;&gt;InviteRequest -->
<g id="edge24" class="edge"><title>Gamer&#45;&gt;InviteRequest</title>
<path fill="none" stroke="#14120e" d="M216.487,-741.631C191.94,-712.245 165.972,-681.159 144.295,-655.209"/>
<ellipse fill="none" stroke="#14120e" cx="219.315" cy="-745.016" rx="4.00002" ry="4.00002"/>
<polygon fill="#14120e" stroke="#14120e" points="144.123,-655.002 141.165,-644.443 140.917,-651.165 137.712,-647.328 137.712,-647.328 137.712,-647.328 140.917,-651.165 134.258,-650.213 144.123,-655.002 144.123,-655.002"/>
</g>
<!-- Gamer&#45;&gt;Group -->
<g id="edge23" class="edge"><title>Gamer&#45;&gt;Group</title>
<path fill="none" stroke="#d742e1" d="M389.431,-719.249C401.69,-706.861 414.945,-695.413 429,-686 478.661,-652.741 522.203,-695.863 558,-648 586.969,-609.267 582.045,-556.806 568.11,-511.181"/>
<polygon fill="#d742e1" stroke="#d742e1" points="389.257,-719.43 379.084,-723.526 385.793,-723.037 382.33,-726.643 382.33,-726.643 382.33,-726.643 385.793,-723.037 385.575,-729.76 389.257,-719.43 389.257,-719.43"/>
<polygon fill="#d742e1" stroke="#d742e1" points="568.075,-511.074 569.291,-500.176 566.542,-506.315 565.008,-501.556 565.008,-501.556 565.008,-501.556 566.542,-506.315 560.725,-502.936 568.075,-511.074 568.075,-511.074"/>
</g>
<!-- Gamer&#45;&gt;GamersGroup -->
<g id="edge22" class="edge"><title>Gamer&#45;&gt;GamersGroup</title>
<path fill="none" stroke="#51b5bf" d="M387.831,-717.666C400.412,-705.48 414.179,-694.512 429,-686 489.759,-651.106 544.737,-707.335 582,-648 652.455,-535.813 618.003,-372.183 590.921,-283.937"/>
<ellipse fill="none" stroke="#51b5bf" cx="384.966" cy="-720.522" rx="4.00002" ry="4.00002"/>
<polygon fill="#51b5bf" stroke="#51b5bf" points="590.903,-283.88 592.207,-272.992 589.408,-279.109 587.913,-274.337 587.913,-274.337 587.913,-274.337 589.408,-279.109 583.619,-275.683 590.903,-283.88 590.903,-283.88"/>
</g>
<!-- Gamer&#45;&gt;GamersGame -->
<g id="edge27" class="edge"><title>Gamer&#45;&gt;GamersGame</title>
<path fill="none" stroke="#274600" d="M388.085,-716.258C400.559,-704.469 414.232,-693.979 429,-686 501.68,-646.731 535.398,-693.42 614,-668 631.149,-662.454 648.5,-654.286 664.594,-645.4"/>
<ellipse fill="none" stroke="#274600" cx="384.919" cy="-719.35" rx="4.00002" ry="4.00002"/>
<polygon fill="#274600" stroke="#274600" points="664.701,-645.34 675.619,-644.316 669.049,-642.871 673.397,-640.402 673.397,-640.402 673.397,-640.402 669.049,-642.871 671.175,-636.489 664.701,-645.34 664.701,-645.34"/>
</g>
<!-- GamersConsole -->
<g id="node15" class="node"><title>GamersConsole</title>
<path fill="none" stroke="black" d="M317.5,-358C317.5,-358 424.5,-358 424.5,-358 430.5,-358 436.5,-364 436.5,-370 436.5,-370 436.5,-452 436.5,-452 436.5,-458 430.5,-464 424.5,-464 424.5,-464 317.5,-464 317.5,-464 311.5,-464 305.5,-458 305.5,-452 305.5,-452 305.5,-370 305.5,-370 305.5,-364 311.5,-358 317.5,-358"/>
<text text-anchor="middle" x="371" y="-448.8" font-family="Times,serif" font-size="14.00">GamersConsole</text>
<polyline fill="none" stroke="black" points="305.5,-441 436.5,-441 "/>
<text text-anchor="start" x="313.5" y="-425.8" font-family="Times,serif" font-size="14.00">id :integer</text>
<text text-anchor="start" x="313.5" y="-410.8" font-family="Times,serif" font-size="14.00">created_at :datetime</text>
<text text-anchor="start" x="313.5" y="-395.8" font-family="Times,serif" font-size="14.00">updated_at :datetime</text>
<text text-anchor="start" x="313.5" y="-380.8" font-family="Times,serif" font-size="14.00">console_id :integer</text>
<text text-anchor="start" x="313.5" y="-365.8" font-family="Times,serif" font-size="14.00">gamer_id :integer</text>
</g>
<!-- Gamer&#45;&gt;GamersConsole -->
<g id="edge25" class="edge"><title>Gamer&#45;&gt;GamersConsole</title>
<path fill="none" stroke="#758d25" d="M307.25,-678.558C310.8,-633.293 316.596,-584.465 326,-540 330.671,-517.917 338.15,-494.431 345.68,-473.688"/>
<ellipse fill="none" stroke="#758d25" cx="306.937" cy="-682.683" rx="4" ry="4"/>
<polygon fill="#758d25" stroke="#758d25" points="345.775,-473.431 353.47,-465.619 347.513,-468.743 349.251,-464.055 349.251,-464.055 349.251,-464.055 347.513,-468.743 345.032,-462.491 345.775,-473.431 345.775,-473.431"/>
</g>
<!-- Gamer&#45;&gt;Chatroom -->
<g id="edge20" class="edge"><title>Gamer&#45;&gt;Chatroom</title>
<path fill="none" stroke="#72307b" d="M251.573,-676.663C251.019,-673.76 250.494,-670.87 250,-668 227.343,-536.422 224.307,-380.08 224.747,-291.809"/>
<polygon fill="#72307b" stroke="#72307b" points="251.596,-676.779 249.146,-687.468 252.577,-681.682 253.559,-686.585 253.559,-686.585 253.559,-686.585 252.577,-681.682 257.971,-685.702 251.596,-676.779 251.596,-676.779"/>
<polygon fill="#72307b" stroke="#72307b" points="224.748,-291.65 229.315,-281.68 224.782,-286.65 224.815,-281.65 224.815,-281.65 224.815,-281.65 224.782,-286.65 220.315,-281.62 224.748,-291.65 224.748,-291.65"/>
</g>
<!-- Console -->
<g id="node18" class="node"><title>Console</title>
<path fill="none" stroke="black" d="M430.5,-541C430.5,-541 537.5,-541 537.5,-541 543.5,-541 549.5,-547 549.5,-553 549.5,-553 549.5,-635 549.5,-635 549.5,-641 543.5,-647 537.5,-647 537.5,-647 430.5,-647 430.5,-647 424.5,-647 418.5,-641 418.5,-635 418.5,-635 418.5,-553 418.5,-553 418.5,-547 424.5,-541 430.5,-541"/>
<text text-anchor="middle" x="484" y="-631.8" font-family="Times,serif" font-size="14.00">Console</text>
<polyline fill="none" stroke="black" points="418.5,-624 549.5,-624 "/>
<text text-anchor="start" x="426.5" y="-608.8" font-family="Times,serif" font-size="14.00">id :integer</text>
<text text-anchor="start" x="426.5" y="-593.8" font-family="Times,serif" font-size="14.00">name :varchar</text>
<text text-anchor="start" x="426.5" y="-578.8" font-family="Times,serif" font-size="14.00">created_at :datetime</text>
<text text-anchor="start" x="426.5" y="-563.8" font-family="Times,serif" font-size="14.00">updated_at :datetime</text>
<text text-anchor="start" x="426.5" y="-548.8" font-family="Times,serif" font-size="14.00">description :text</text>
</g>
<!-- Gamer&#45;&gt;Console -->
<g id="edge26" class="edge"><title>Gamer&#45;&gt;Console</title>
<path fill="none" stroke="#bc857b" d="M388.199,-696.487C390.781,-692.925 393.383,-689.423 396,-686 404.163,-675.322 413.447,-664.552 422.852,-654.344"/>
<polygon fill="#bc857b" stroke="#bc857b" points="388.011,-696.752 378.547,-702.292 385.112,-700.826 382.214,-704.9 382.214,-704.9 382.214,-704.9 385.112,-700.826 385.881,-707.509 388.011,-696.752 388.011,-696.752"/>
<polygon fill="#bc857b" stroke="#bc857b" points="422.874,-654.321 432.993,-650.095 426.291,-650.671 429.707,-647.02 429.707,-647.02 429.707,-647.02 426.291,-650.671 426.422,-643.945 422.874,-654.321 422.874,-654.321"/>
</g>
<!-- ChatroomUser -->
<g id="node19" class="node"><title>ChatroomUser</title>
<path fill="none" stroke="black" d="M97.5,-8C97.5,-8 204.5,-8 204.5,-8 210.5,-8 216.5,-14 216.5,-20 216.5,-20 216.5,-102 216.5,-102 216.5,-108 210.5,-114 204.5,-114 204.5,-114 97.5,-114 97.5,-114 91.5,-114 85.5,-108 85.5,-102 85.5,-102 85.5,-20 85.5,-20 85.5,-14 91.5,-8 97.5,-8"/>
<text text-anchor="middle" x="151" y="-98.8" font-family="Times,serif" font-size="14.00">ChatroomUser</text>
<polyline fill="none" stroke="black" points="85.5,-91 216.5,-91 "/>
<text text-anchor="start" x="93.5" y="-75.8" font-family="Times,serif" font-size="14.00">id :integer</text>
<text text-anchor="start" x="93.5" y="-60.8" font-family="Times,serif" font-size="14.00">chatroom_id :integer</text>
<text text-anchor="start" x="93.5" y="-45.8" font-family="Times,serif" font-size="14.00">gamer_id :integer</text>
<text text-anchor="start" x="93.5" y="-30.8" font-family="Times,serif" font-size="14.00">created_at :datetime</text>
<text text-anchor="start" x="93.5" y="-15.8" font-family="Times,serif" font-size="14.00">updated_at :datetime</text>
</g>
<!-- Gamer&#45;&gt;ChatroomUser -->
<g id="edge19" class="edge"><title>Gamer&#45;&gt;ChatroomUser</title>
<path fill="none" stroke="#7288b8" d="M240.529,-679.157C237.16,-668.66 233.952,-658.212 231,-648 184.766,-488.04 168.881,-447.544 151,-282 145.273,-228.98 145.793,-168.352 147.449,-124.186"/>
<ellipse fill="none" stroke="#7288b8" cx="241.775" cy="-683.001" rx="4.00001" ry="4.00001"/>
<polygon fill="#7288b8" stroke="#7288b8" points="147.45,-124.168 152.351,-114.359 147.652,-119.173 147.855,-114.177 147.855,-114.177 147.855,-114.177 147.652,-119.173 143.358,-113.995 147.45,-124.168 147.45,-124.168"/>
</g>
<!-- ApplicationRecord -->
<g id="node16" class="node"><title>ApplicationRecord</title>
<ellipse fill="none" stroke="black" cx="1207" cy="-1375" rx="77.0154" ry="18"/>
<text text-anchor="middle" x="1207" y="-1371.3" font-family="Times,serif" font-size="14.00">ApplicationRecord</text>
</g>
<!-- Chatroom&#45;&gt;Message -->
<g id="edge29" class="edge"><title>Chatroom&#45;&gt;Message</title>
<path fill="none" stroke="#e07122" d="M261.581,-153.074C265.494,-145.713 269.484,-138.208 273.41,-130.824"/>
<ellipse fill="none" stroke="#e07122" cx="259.635" cy="-156.735" rx="4.00002" ry="4.00002"/>
<polygon fill="#e07122" stroke="#e07122" points="273.643,-130.385 282.311,-123.668 275.99,-125.97 278.338,-121.555 278.338,-121.555 278.338,-121.555 275.99,-125.97 274.364,-119.443 273.643,-130.385 273.643,-130.385"/>
</g>
<!-- Chatroom&#45;&gt;ChatroomUser -->
<g id="edge28" class="edge"><title>Chatroom&#45;&gt;ChatroomUser</title>
<path fill="none" stroke="#09c2c7" d="M194.059,-152.712C189.407,-142.91 184.637,-132.863 180.046,-123.191"/>
<ellipse fill="none" stroke="#09c2c7" cx="195.93" cy="-156.653" rx="4.00002" ry="4.00002"/>
<polygon fill="#09c2c7" stroke="#09c2c7" points="179.997,-123.087 179.774,-112.123 177.853,-118.57 175.709,-114.053 175.709,-114.053 175.709,-114.053 177.853,-118.57 171.644,-115.983 179.997,-123.087 179.997,-123.087"/>
</g>
<!-- Console&#45;&gt;Team -->
<g id="edge30" class="edge"><title>Console&#45;&gt;Team</title>
<path fill="none" stroke="#6f2fb7" d="M443.461,-654.052C437.827,-664.347 432.708,-675.221 429,-686 382.703,-820.599 408.88,-862.789 391,-1004 389.277,-1017.61 387.427,-1031.88 385.567,-1046.03"/>
<ellipse fill="none" stroke="#6f2fb7" cx="445.464" cy="-650.507" rx="4.00002" ry="4.00002"/>
<polygon fill="#6f2fb7" stroke="#6f2fb7" points="385.519,-1046.39 379.75,-1055.72 384.865,-1051.35 384.211,-1056.31 384.211,-1056.31 384.211,-1056.31 384.865,-1051.35 388.673,-1056.9 385.519,-1046.39 385.519,-1046.39"/>
</g>
<!-- Console&#45;&gt;Group -->
<g id="edge31" class="edge"><title>Console&#45;&gt;Group</title>
<path fill="none" stroke="#11cc1c" d="M496.644,-532.776C498.084,-525.918 499.578,-518.797 501.09,-511.599"/>
<ellipse fill="none" stroke="#11cc1c" cx="495.813" cy="-536.733" rx="4.00001" ry="4.00001"/>
<polygon fill="#11cc1c" stroke="#11cc1c" points="501.102,-511.539 507.561,-502.677 502.13,-506.646 503.157,-501.752 503.157,-501.752 503.157,-501.752 502.13,-506.646 498.753,-500.828 501.102,-511.539 501.102,-511.539"/>
</g>
<!-- Console&#45;&gt;GamersConsole -->
<g id="edge32" class="edge"><title>Console&#45;&gt;GamersConsole</title>
<path fill="none" stroke="#c2ea46" d="M447.032,-533.785C434.829,-514.24 421.241,-492.475 408.966,-472.812"/>
<ellipse fill="none" stroke="#c2ea46" cx="449.197" cy="-537.254" rx="4.00002" ry="4.00002"/>
<polygon fill="#c2ea46" stroke="#c2ea46" points="408.907,-472.718 407.428,-461.852 406.259,-468.476 403.611,-464.235 403.611,-464.235 403.611,-464.235 406.259,-468.476 399.794,-466.618 408.907,-472.718 408.907,-472.718"/>
</g>
</g>
</svg>
