<?xml version="1.0" encoding="UTF-8" standalone="no"?>
<!DOCTYPE svg PUBLIC "-//W3C//DTD SVG 1.1//EN"
 "http://www.w3.org/Graphics/SVG/1.1/DTD/svg11.dtd">
<!-- Generated by graphviz version 2.36.0 (20140111.2315)
 -->
<!-- Title: models_diagram Pages: 1 -->
<svg width="1063pt" height="544pt"
 viewBox="0.00 0.00 1063.00 544.00" xmlns="http://www.w3.org/2000/svg" xmlns:xlink="http://www.w3.org/1999/xlink">
<g id="graph0" class="graph" transform="scale(1 1) rotate(0) translate(4 540)">
<title>models_diagram</title>
<polygon fill="none" stroke="none" points="-4,4 -4,-540 1059,-540 1059,4 -4,4"/>
<!-- _diagram_info -->
<g id="node1" class="node"><title>_diagram_info</title>
<text text-anchor="start" x="434" y="-521.6" font-family="Times,serif" font-size="13.00">Models diagram</text>
<text text-anchor="start" x="434" y="-507.6" font-family="Times,serif" font-size="13.00">Date: Sep 15 2018 &#45; 08:06</text>
<text text-anchor="start" x="434" y="-493.6" font-family="Times,serif" font-size="13.00">Migration version: 20180904133446</text>
<text text-anchor="start" x="434" y="-479.6" font-family="Times,serif" font-size="13.00">Generated by RailRoady 1.5.3</text>
<text text-anchor="start" x="434" y="-465.6" font-family="Times,serif" font-size="13.00">http://railroady.prestonlee.com</text>
</g>
<!-- Game -->
<g id="node2" class="node"><title>Game</title>
<ellipse fill="none" stroke="black" cx="690" cy="-497" rx="32.2457" ry="18"/>
<text text-anchor="middle" x="690" y="-493.3" font-family="Times,serif" font-size="14.00">Game</text>
</g>
<!-- Team -->
<g id="node4" class="node"><title>Team</title>
<ellipse fill="none" stroke="black" cx="401" cy="-402" rx="31.2965" ry="18"/>
<text text-anchor="middle" x="401" y="-398.3" font-family="Times,serif" font-size="14.00">Team</text>
</g>
<!-- Game&#45;&gt;Team -->
<g id="edge1" class="edge"><title>Game&#45;&gt;Team</title>
<path fill="none" stroke="#85ecf6" d="M670.891,-474.894C664.21,-468.622 656.292,-462.288 648,-458 581.148,-423.428 493.158,-410.497 442.258,-405.724"/>
<ellipse fill="none" stroke="#85ecf6" cx="673.806" cy="-477.769" rx="4.00002" ry="4.00002"/>
<polygon fill="#85ecf6" stroke="#85ecf6" points="441.943,-405.697 432.373,-400.342 436.962,-405.261 431.981,-404.825 431.981,-404.825 431.981,-404.825 436.962,-405.261 431.589,-409.308 441.943,-405.697 441.943,-405.697"/>
</g>
<!-- Playing -->
<g id="node9" class="node"><title>Playing</title>
<ellipse fill="none" stroke="black" cx="702" cy="-92" rx="37.5442" ry="18"/>
<text text-anchor="middle" x="702" y="-88.3" font-family="Times,serif" font-size="14.00">Playing</text>
</g>
<!-- Game&#45;&gt;Playing -->
<g id="edge2" class="edge"><title>Game&#45;&gt;Playing</title>
<path fill="none" stroke="#8bf553" d="M712.174,-475.436C734.607,-453.673 766,-420.154 766,-403 766,-403 766,-403 766,-165 766,-143.352 749.639,-125.189 733.461,-112.52"/>
<ellipse fill="none" stroke="#8bf553" cx="709.006" cy="-478.472" rx="4.00002" ry="4.00002"/>
<polygon fill="#8bf553" stroke="#8bf553" points="733.176,-112.312 727.763,-102.775 729.141,-109.36 725.105,-106.407 725.105,-106.407 725.105,-106.407 729.141,-109.36 722.448,-110.039 733.176,-112.312 733.176,-112.312"/>
</g>
<!-- Group -->
<g id="node10" class="node"><title>Group</title>
<ellipse fill="none" stroke="black" cx="491" cy="-166" rx="33.2209" ry="18"/>
<text text-anchor="middle" x="491" y="-162.3" font-family="Times,serif" font-size="14.00">Group</text>
</g>
<!-- Game&#45;&gt;Group -->
<g id="edge3" class="edge"><title>Game&#45;&gt;Group</title>
<path fill="none" stroke="#508d98" d="M706.224,-471.258C716.553,-453.128 728,-427.507 728,-403 728,-403 728,-403 728,-239 728,-198.813 601.669,-178.928 533.474,-171.121"/>
<polygon fill="#508d98" stroke="#508d98" points="706.123,-471.427 697.129,-477.701 703.557,-475.718 700.991,-480.01 700.991,-480.01 700.991,-480.01 703.557,-475.718 704.854,-482.319 706.123,-471.427 706.123,-471.427"/>
<polygon fill="#508d98" stroke="#508d98" points="533.396,-171.113 523.952,-165.541 528.427,-170.563 523.457,-170.013 523.457,-170.013 523.457,-170.013 528.427,-170.563 522.962,-174.486 533.396,-171.113 533.396,-171.113"/>
</g>
<!-- Gamer -->
<g id="node11" class="node"><title>Gamer</title>
<ellipse fill="none" stroke="black" cx="330" cy="-314" rx="35.1455" ry="18"/>
<text text-anchor="middle" x="330" y="-310.3" font-family="Times,serif" font-size="14.00">Gamer</text>
</g>
<!-- Game&#45;&gt;Gamer -->
<g id="edge5" class="edge"><title>Game&#45;&gt;Gamer</title>
<path fill="none" stroke="#b09a24" d="M669.446,-472.919C663.133,-467.158 655.78,-461.602 648,-458 531.235,-403.948 469.763,-488.748 361,-420 336.824,-404.719 334.111,-393.426 326,-366 323.784,-358.505 323.564,-350.137 324.229,-342.381"/>
<polygon fill="#b09a24" stroke="#b09a24" points="669.713,-473.182 673.686,-483.403 673.277,-476.688 676.842,-480.195 676.842,-480.195 676.842,-480.195 673.277,-476.688 679.998,-476.987 669.713,-473.182 669.713,-473.182"/>
<polygon fill="#b09a24" stroke="#b09a24" points="324.249,-342.235 330.042,-332.924 324.916,-337.279 325.582,-332.324 325.582,-332.324 325.582,-332.324 324.916,-337.279 321.122,-331.724 324.249,-342.235 324.249,-342.235"/>
</g>
<!-- GamersGame -->
<g id="node14" class="node"><title>GamersGame</title>
<ellipse fill="none" stroke="black" cx="640" cy="-240" rx="59.1941" ry="18"/>
<text text-anchor="middle" x="640" y="-236.3" font-family="Times,serif" font-size="14.00">GamersGame</text>
</g>
<!-- Game&#45;&gt;GamersGame -->
<g id="edge4" class="edge"><title>Game&#45;&gt;GamersGame</title>
<path fill="none" stroke="#1c99cb" d="M690.916,-470.849C691.592,-432.284 690.024,-356.641 671,-296 667.834,-285.909 662.652,-275.612 657.422,-266.698"/>
<ellipse fill="none" stroke="#1c99cb" cx="690.822" cy="-474.941" rx="4" ry="4"/>
<polygon fill="#1c99cb" stroke="#1c99cb" points="657.29,-266.484 655.866,-255.611 654.664,-262.229 652.037,-257.975 652.037,-257.975 652.037,-257.975 654.664,-262.229 648.208,-260.339 657.29,-266.484 657.29,-266.484"/>
</g>
<!-- Match -->
<g id="node3" class="node"><title>Match</title>
<ellipse fill="none" stroke="black" cx="518" cy="-314" rx="33.1991" ry="18"/>
<text text-anchor="middle" x="518" y="-310.3" font-family="Times,serif" font-size="14.00">Match</text>
</g>
<!-- Team&#45;&gt;Match -->
<g id="edge11" class="edge"><title>Team&#45;&gt;Match</title>
<path fill="none" stroke="#e41805" d="M433.142,-387.546C445.243,-381.766 458.78,-374.399 470,-366 480.39,-358.223 490.46,-348.066 498.67,-338.865"/>
<ellipse fill="none" stroke="#e41805" cx="429.456" cy="-389.254" rx="4.00002" ry="4.00002"/>
<polygon fill="#e41805" stroke="#e41805" points="498.832,-338.677 508.774,-334.05 502.101,-334.893 505.369,-331.109 505.369,-331.109 505.369,-331.109 502.101,-334.893 501.963,-328.167 498.832,-338.677 498.832,-338.677"/>
</g>
<!-- Team&#45;&gt;Team -->
<g id="edge12" class="edge"><title>Team&#45;&gt;Team</title>
<path fill="none" stroke="#f7cbfe" d="M441.925,-404.9C446.81,-404.373 450,-403.406 450,-402 450,-400.594 446.81,-399.627 441.925,-399.1"/>
<polygon fill="#f7cbfe" stroke="#f7cbfe" points="441.614,-404.915 431.418,-400.88 436.62,-405.145 431.625,-405.375 431.625,-405.375 431.625,-405.375 436.62,-405.145 431.832,-409.87 441.614,-404.915 441.614,-404.915"/>
<polygon fill="#f7cbfe" stroke="#f7cbfe" points="441.614,-399.085 431.832,-394.13 436.62,-398.855 431.625,-398.625 431.625,-398.625 431.625,-398.625 436.62,-398.855 431.418,-403.12 441.614,-399.085 441.614,-399.085"/>
<text text-anchor="middle" x="495.5" y="-398.3" font-family="Times,serif" font-size="14.00">matching_teams</text>
</g>
<!-- Team&#45;&gt;Team -->
<g id="edge14" class="edge"><title>Team&#45;&gt;Team</title>
<path fill="none" stroke="#69f9c3" d="M441.073,-407.669C483.329,-410.19 541,-408.301 541,-402 541,-395.699 483.329,-393.81 441.073,-396.331"/>
<polygon fill="#69f9c3" stroke="#69f9c3" points="440.951,-407.661 431.293,-402.467 435.964,-407.308 430.976,-406.955 430.976,-406.955 430.976,-406.955 435.964,-407.308 430.659,-411.444 440.951,-407.661 440.951,-407.661"/>
<polygon fill="#69f9c3" stroke="#69f9c3" points="440.951,-396.339 430.659,-392.556 435.964,-396.692 430.976,-397.045 430.976,-397.045 430.976,-397.045 435.964,-396.692 431.293,-401.533 440.951,-396.339 440.951,-396.339"/>
<text text-anchor="middle" x="592.5" y="-398.3" font-family="Times,serif" font-size="14.00">challenging_teams</text>
</g>
<!-- InviteRequest -->
<g id="node8" class="node"><title>InviteRequest</title>
<ellipse fill="none" stroke="black" cx="88" cy="-240" rx="59.1941" ry="18"/>
<text text-anchor="middle" x="88" y="-236.3" font-family="Times,serif" font-size="14.00">InviteRequest</text>
</g>
<!-- Team&#45;&gt;InviteRequest -->
<g id="edge9" class="edge"><title>Team&#45;&gt;InviteRequest</title>
<path fill="none" stroke="#1614dd" d="M369.623,-386.666C356.142,-380.428 340.244,-372.964 326,-366 248.859,-328.282 229.687,-318.558 154,-278 143.983,-272.632 133.198,-266.667 123.309,-261.12"/>
<ellipse fill="none" stroke="#1614dd" cx="373.618" cy="-388.509" rx="4.00002" ry="4.00002"/>
<polygon fill="#1614dd" stroke="#1614dd" points="123.24,-261.081 116.735,-252.253 118.883,-258.628 114.527,-256.174 114.527,-256.174 114.527,-256.174 118.883,-258.628 112.319,-260.095 123.24,-261.081 123.24,-261.081"/>
</g>
<!-- Team&#45;&gt;Gamer -->
<g id="edge7" class="edge"><title>Team&#45;&gt;Gamer</title>
<path fill="none" stroke="#39a891" d="M402.054,-375.868C401.315,-367.042 399.15,-357.473 394,-350 387.35,-340.35 377.145,-333.103 366.824,-327.783"/>
<ellipse fill="none" stroke="#39a891" cx="402.218" cy="-380.014" rx="4" ry="4"/>
<ellipse fill="#39a891" stroke="#39a891" cx="362.954" cy="-325.953" rx="4.00002" ry="4.00002"/>
<text text-anchor="middle" x="412.5" y="-354.3" font-family="Times,serif" font-size="14.00">boss</text>
</g>
<!-- Team&#45;&gt;Gamer -->
<g id="edge8" class="edge"><title>Team&#45;&gt;Gamer</title>
<path fill="none" stroke="#c2cea7" d="M366.38,-389.324C355.325,-383.916 344.123,-376.337 337,-366 332.222,-359.066 330.013,-350.328 329.129,-342.053"/>
<ellipse fill="none" stroke="#c2cea7" cx="370.309" cy="-391.088" rx="4.00002" ry="4.00002"/>
<polygon fill="#c2cea7" stroke="#c2cea7" points="329.125,-341.977 333.118,-331.764 328.875,-336.983 328.624,-331.99 328.624,-331.99 328.624,-331.99 328.875,-336.983 324.13,-332.215 329.125,-341.977 329.125,-341.977"/>
</g>
<!-- Team&#45;&gt;Gamer -->
<g id="edge10" class="edge"><title>Team&#45;&gt;Gamer</title>
<path fill="none" stroke="#3fe342" d="M371.197,-382.965C364.633,-378.042 358.121,-372.304 353,-366 347.102,-358.739 342.386,-349.723 338.798,-341.3"/>
<polygon fill="#3fe342" stroke="#3fe342" points="371.251,-383.002 376.852,-392.43 375.344,-385.874 379.437,-388.746 379.437,-388.746 379.437,-388.746 375.344,-385.874 382.021,-385.063 371.251,-383.002 371.251,-383.002"/>
<polygon fill="#3fe342" stroke="#3fe342" points="338.736,-341.141 339.293,-330.189 336.918,-336.483 335.101,-331.825 335.101,-331.825 335.101,-331.825 336.918,-336.483 330.909,-333.461 338.736,-341.141 338.736,-341.141"/>
<text text-anchor="middle" x="371.5" y="-354.3" font-family="Times,serif" font-size="14.00">invites</text>
</g>
<!-- Challenge -->
<g id="node12" class="node"><title>Challenge</title>
<ellipse fill="none" stroke="black" cx="616" cy="-314" rx="46.2191" ry="18"/>
<text text-anchor="middle" x="616" y="-310.3" font-family="Times,serif" font-size="14.00">Challenge</text>
</g>
<!-- Team&#45;&gt;Challenge -->
<g id="edge13" class="edge"><title>Team&#45;&gt;Challenge</title>
<path fill="none" stroke="#49e972" d="M434.179,-388.449C451.456,-381.861 472.906,-373.597 492,-366 520.354,-354.718 552.187,-341.617 576.499,-331.518"/>
<ellipse fill="none" stroke="#49e972" cx="430.296" cy="-389.927" rx="4.00001" ry="4.00001"/>
<polygon fill="#49e972" stroke="#49e972" points="576.525,-331.507 587.486,-331.821 581.141,-329.587 585.758,-327.666 585.758,-327.666 585.758,-327.666 581.141,-329.587 584.029,-323.511 576.525,-331.507 576.525,-331.507"/>
</g>
<!-- Chatroom -->
<g id="node17" class="node"><title>Chatroom</title>
<ellipse fill="none" stroke="black" cx="214" cy="-92" rx="46.2191" ry="18"/>
<text text-anchor="middle" x="214" y="-88.3" font-family="Times,serif" font-size="14.00">Chatroom</text>
</g>
<!-- Team&#45;&gt;Chatroom -->
<g id="edge6" class="edge"><title>Team&#45;&gt;Chatroom</title>
<path fill="none" stroke="#5a6c98" d="M361.742,-400.842C260.783,-399.382 0,-388.496 0,-315 0,-315 0,-315 0,-165 0,-131.163 97.3223,-110.22 160.704,-100.168"/>
<ellipse fill="none" stroke="#5a6c98" cx="365.868" cy="-400.894" rx="4" ry="4"/>
<polygon fill="#5a6c98" stroke="#5a6c98" points="161.068,-100.112 171.636,-103.038 166.01,-99.351 170.951,-98.59 170.951,-98.59 170.951,-98.59 166.01,-99.351 170.266,-94.1424 161.068,-100.112 161.068,-100.112"/>
</g>
<!-- Nation -->
<g id="node5" class="node"><title>Nation</title>
<ellipse fill="none" stroke="black" cx="775" cy="-497" rx="34.1708" ry="18"/>
<text text-anchor="middle" x="775" y="-493.3" font-family="Times,serif" font-size="14.00">Nation</text>
</g>
<!-- Message -->
<g id="node6" class="node"><title>Message</title>
<ellipse fill="none" stroke="black" cx="281" cy="-18" rx="42.3701" ry="18"/>
<text text-anchor="middle" x="281" y="-14.3" font-family="Times,serif" font-size="14.00">Message</text>
</g>
<!-- Ability -->
<g id="node7" class="node"><title>Ability</title>
<polygon fill="none" stroke="black" points="882.25,-515 827.75,-515 827.75,-479 882.25,-479 882.25,-515"/>
<text text-anchor="middle" x="855" y="-493.3" font-family="Times,serif" font-size="14.00">Ability</text>
</g>
<!-- Group&#45;&gt;Playing -->
<g id="edge16" class="edge"><title>Group&#45;&gt;Playing</title>
<path fill="none" stroke="#5af4f0" d="M526.16,-153.002C563.893,-140.127 623.676,-119.727 662.874,-106.351"/>
<ellipse fill="none" stroke="#5af4f0" cx="522.37" cy="-154.295" rx="4.00001" ry="4.00001"/>
<polygon fill="#5af4f0" stroke="#5af4f0" points="662.905,-106.34 673.823,-107.37 667.638,-104.726 672.37,-103.111 672.37,-103.111 672.37,-103.111 667.638,-104.726 670.916,-98.852 662.905,-106.34 662.905,-106.34"/>
</g>
<!-- Group&#45;&gt;Gamer -->
<g id="edge18" class="edge"><title>Group&#45;&gt;Gamer</title>
<path fill="none" stroke="#e644b1" d="M454.825,-180.126C412.19,-195.668 346.848,-219.747 345,-222 330.521,-239.653 327.518,-265.874 327.698,-285.641"/>
<polygon fill="#e644b1" stroke="#e644b1" points="454.937,-180.085 465.873,-180.892 459.636,-178.374 464.334,-176.664 464.334,-176.664 464.334,-176.664 459.636,-178.374 462.794,-172.435 454.937,-180.085 454.937,-180.085"/>
<polygon fill="#e644b1" stroke="#e644b1" points="327.707,-285.87 323.577,-296.028 327.89,-290.866 328.074,-295.863 328.074,-295.863 328.074,-295.863 327.89,-290.866 332.571,-295.698 327.707,-285.87 327.707,-285.87"/>
<text text-anchor="middle" x="371" y="-236.3" font-family="Times,serif" font-size="14.00">members</text>
</g>
<!-- GamersGroup -->
<g id="node13" class="node"><title>GamersGroup</title>
<ellipse fill="none" stroke="black" cx="522" cy="-92" rx="61.1419" ry="18"/>
<text text-anchor="middle" x="522" y="-88.3" font-family="Times,serif" font-size="14.00">GamersGroup</text>
</g>
<!-- Group&#45;&gt;GamersGroup -->
<g id="edge17" class="edge"><title>Group&#45;&gt;GamersGroup</title>
<path fill="none" stroke="#10a4a5" d="M501.369,-140.916C504.358,-133.975 507.633,-126.368 510.677,-119.3"/>
<ellipse fill="none" stroke="#10a4a5" cx="499.772" cy="-144.627" rx="4.00002" ry="4.00002"/>
<polygon fill="#10a4a5" stroke="#10a4a5" points="510.679,-119.293 518.767,-111.888 512.656,-114.701 514.634,-110.109 514.634,-110.109 514.634,-110.109 512.656,-114.701 510.501,-108.329 510.679,-119.293 510.679,-119.293"/>
</g>
<!-- Group&#45;&gt;Chatroom -->
<g id="edge15" class="edge"><title>Group&#45;&gt;Chatroom</title>
<path fill="none" stroke="#9062aa" d="M457.072,-152.219C452.698,-150.722 448.26,-149.275 444,-148 382.623,-129.625 310.611,-113.215 263.736,-103.202"/>
<ellipse fill="none" stroke="#9062aa" cx="461.051" cy="-153.617" rx="4.00001" ry="4.00001"/>
<polygon fill="#9062aa" stroke="#9062aa" points="263.62,-103.178 254.771,-96.7009 258.728,-102.14 253.837,-101.103 253.837,-101.103 253.837,-101.103 258.728,-102.14 252.904,-105.505 263.62,-103.178 263.62,-103.178"/>
</g>
<!-- Gamer&#45;&gt;Message -->
<g id="edge21" class="edge"><title>Gamer&#45;&gt;Message</title>
<path fill="none" stroke="#51ac27" d="M317.64,-289.22C315.953,-285.517 314.343,-281.694 313,-278 309.871,-269.389 310.137,-266.91 308,-258 300.13,-225.185 295.815,-217.4 291,-184 284.084,-136.023 281.941,-79.5269 281.283,-46.6392"/>
<ellipse fill="none" stroke="#51ac27" cx="319.427" cy="-292.961" rx="4.00002" ry="4.00002"/>
<polygon fill="#51ac27" stroke="#51ac27" points="281.28,-46.436 285.612,-36.3621 281.196,-41.4367 281.112,-36.4374 281.112,-36.4374 281.112,-36.4374 281.196,-41.4367 276.613,-36.5128 281.28,-46.436 281.28,-46.436"/>
</g>
<!-- Gamer&#45;&gt;InviteRequest -->
<g id="edge24" class="edge"><title>Gamer&#45;&gt;InviteRequest</title>
<path fill="none" stroke="#eb9121" d="M288.497,-307.412C253.997,-302.046 203.945,-292.579 162,-278 149.046,-273.497 135.462,-267.207 123.519,-261.088"/>
<ellipse fill="none" stroke="#eb9121" cx="292.528" cy="-308.024" rx="4.00001" ry="4.00001"/>
<polygon fill="#eb9121" stroke="#eb9121" points="123.186,-260.913 116.432,-252.273 118.761,-258.584 114.336,-256.256 114.336,-256.256 114.336,-256.256 118.761,-258.584 112.24,-260.238 123.186,-260.913 123.186,-260.913"/>
</g>
<!-- Gamer&#45;&gt;Group -->
<g id="edge23" class="edge"><title>Gamer&#45;&gt;Group</title>
<path fill="none" stroke="#1f0298" d="M375.518,-311.541C414.074,-307.602 467.23,-295.213 494,-258 507.224,-239.618 504.708,-213.313 499.928,-193.709"/>
<polygon fill="#1f0298" stroke="#1f0298" points="375.027,-311.583 364.678,-307.958 370.045,-312.012 365.064,-312.441 365.064,-312.441 365.064,-312.441 370.045,-312.012 365.45,-316.925 375.027,-311.583 375.027,-311.583"/>
<polygon fill="#1f0298" stroke="#1f0298" points="499.873,-193.511 501.546,-182.674 498.541,-188.692 497.209,-183.873 497.209,-183.873 497.209,-183.873 498.541,-188.692 492.872,-185.071 499.873,-193.511 499.873,-193.511"/>
</g>
<!-- Gamer&#45;&gt;GamersGroup -->
<g id="edge22" class="edge"><title>Gamer&#45;&gt;GamersGroup</title>
<path fill="none" stroke="#cab4a2" d="M372.657,-309.412C405.824,-305.284 452.224,-296.506 489,-278 501.101,-271.911 504.738,-269.435 512,-258 538.682,-215.984 537.904,-197.53 533,-148 532.09,-138.806 530.343,-128.873 528.505,-120.011"/>
<ellipse fill="none" stroke="#cab4a2" cx="368.497" cy="-309.9" rx="4.00001" ry="4.00001"/>
<polygon fill="#cab4a2" stroke="#cab4a2" points="528.498,-119.975 530.746,-109.242 527.424,-115.092 526.351,-110.208 526.351,-110.208 526.351,-110.208 527.424,-115.092 521.956,-111.174 528.498,-119.975 528.498,-119.975"/>
</g>
<!-- Gamer&#45;&gt;GamersGame -->
<g id="edge27" class="edge"><title>Gamer&#45;&gt;GamersGame</title>
<path fill="none" stroke="#03ad05" d="M372.48,-309.198C417.256,-304.508 489.536,-294.989 550,-278 566.836,-273.27 584.772,-266.315 600.165,-259.709"/>
<ellipse fill="none" stroke="#03ad05" cx="368.428" cy="-309.611" rx="4" ry="4"/>
<polygon fill="#03ad05" stroke="#03ad05" points="600.231,-259.68 611.197,-259.784 604.81,-257.671 609.389,-255.663 609.389,-255.663 609.389,-255.663 604.81,-257.671 607.581,-251.542 600.231,-259.68 600.231,-259.68"/>
</g>
<!-- GamersConsole -->
<g id="node15" class="node"><title>GamersConsole</title>
<ellipse fill="none" stroke="black" cx="368" cy="-166" rx="67.3907" ry="18"/>
<text text-anchor="middle" x="368" y="-162.3" font-family="Times,serif" font-size="14.00">GamersConsole</text>
</g>
<!-- Gamer&#45;&gt;GamersConsole -->
<g id="edge25" class="edge"><title>Gamer&#45;&gt;GamersConsole</title>
<path fill="none" stroke="#20281b" d="M320.771,-288.326C315.103,-269.998 309.686,-244.402 314,-222 315.81,-212.599 316.203,-209.619 322,-202 325.418,-197.508 329.555,-193.3 333.93,-189.468"/>
<ellipse fill="none" stroke="#20281b" cx="322.109" cy="-292.398" rx="4.00001" ry="4.00001"/>
<polygon fill="#20281b" stroke="#20281b" points="334.172,-189.273 344.781,-186.501 338.064,-186.136 341.957,-182.998 341.957,-182.998 341.957,-182.998 338.064,-186.136 339.133,-179.494 334.172,-189.273 334.172,-189.273"/>
</g>
<!-- Gamer&#45;&gt;Chatroom -->
<g id="edge20" class="edge"><title>Gamer&#45;&gt;Chatroom</title>
<path fill="none" stroke="#65768f" d="M285.888,-306.277C268.386,-301.346 249.682,-292.802 238,-278 201.869,-232.22 204.693,-159.311 209.546,-120.088"/>
<polygon fill="#65768f" stroke="#65768f" points="286.286,-306.376 294.909,-313.151 291.139,-307.58 295.992,-308.783 295.992,-308.783 295.992,-308.783 291.139,-307.58 297.075,-304.416 286.286,-306.376 286.286,-306.376"/>
<polygon fill="#65768f" stroke="#65768f" points="209.575,-119.876 215.396,-110.583 210.257,-114.923 210.938,-109.969 210.938,-109.969 210.938,-109.969 210.257,-114.923 206.48,-109.356 209.575,-119.876 209.575,-119.876"/>
</g>
<!-- Console -->
<g id="node18" class="node"><title>Console</title>
<ellipse fill="none" stroke="black" cx="446" cy="-240" rx="39.4691" ry="18"/>
<text text-anchor="middle" x="446" y="-236.3" font-family="Times,serif" font-size="14.00">Console</text>
</g>
<!-- Gamer&#45;&gt;Console -->
<g id="edge26" class="edge"><title>Gamer&#45;&gt;Console</title>
<path fill="none" stroke="#e3be53" d="M360.183,-294.266C376.857,-283.916 397.55,-271.072 414.439,-260.59"/>
<polygon fill="#e3be53" stroke="#e3be53" points="360.043,-294.352 349.174,-295.803 355.795,-296.989 351.547,-299.626 351.547,-299.626 351.547,-299.626 355.795,-296.989 353.92,-303.449 360.043,-294.352 360.043,-294.352"/>
<polygon fill="#e3be53" stroke="#e3be53" points="414.884,-260.314 425.753,-258.863 419.132,-257.677 423.38,-255.04 423.38,-255.04 423.38,-255.04 419.132,-257.677 421.007,-251.216 414.884,-260.314 414.884,-260.314"/>
</g>
<!-- ChatroomUser -->
<g id="node19" class="node"><title>ChatroomUser</title>
<ellipse fill="none" stroke="black" cx="152" cy="-18" rx="63.0666" ry="18"/>
<text text-anchor="middle" x="152" y="-14.3" font-family="Times,serif" font-size="14.00">ChatroomUser</text>
</g>
<!-- Gamer&#45;&gt;ChatroomUser -->
<g id="edge19" class="edge"><title>Gamer&#45;&gt;ChatroomUser</title>
<path fill="none" stroke="#b3cc67" d="M289.062,-305.724C261.598,-298.539 227.228,-284.59 209,-258 163.578,-191.738 154.138,-93.6221 152.321,-46.3807"/>
<ellipse fill="none" stroke="#b3cc67" cx="293.086" cy="-306.709" rx="4.00001" ry="4.00001"/>
<polygon fill="#b3cc67" stroke="#b3cc67" points="152.319,-46.302 156.52,-36.1727 152.171,-41.3042 152.022,-36.3064 152.022,-36.3064 152.022,-36.3064 152.171,-41.3042 147.524,-36.44 152.319,-46.302 152.319,-46.302"/>
</g>
<!-- ApplicationRecord -->
<g id="node16" class="node"><title>ApplicationRecord</title>
<ellipse fill="none" stroke="black" cx="978" cy="-497" rx="77.0154" ry="18"/>
<text text-anchor="middle" x="978" y="-493.3" font-family="Times,serif" font-size="14.00">ApplicationRecord</text>
</g>
<!-- Chatroom&#45;&gt;Message -->
<g id="edge29" class="edge"><title>Chatroom&#45;&gt;Message</title>
<path fill="none" stroke="#c4224c" d="M234.871,-68.571C242.551,-60.3182 251.268,-50.9506 259.041,-42.5978"/>
<ellipse fill="none" stroke="#c4224c" cx="231.928" cy="-71.7338" rx="4.00002" ry="4.00002"/>
<polygon fill="#c4224c" stroke="#c4224c" points="259.044,-42.594 269.151,-38.3388 262.451,-38.9336 265.857,-35.2733 265.857,-35.2733 265.857,-35.2733 262.451,-38.9336 262.563,-32.2077 259.044,-42.594 259.044,-42.594"/>
</g>
<!-- Chatroom&#45;&gt;ChatroomUser -->
<g id="edge28" class="edge"><title>Chatroom&#45;&gt;ChatroomUser</title>
<path fill="none" stroke="#d5cc0b" d="M194.506,-68.3622C187.692,-60.4483 180.012,-51.5304 173.074,-43.4736"/>
<ellipse fill="none" stroke="#d5cc0b" cx="197.321" cy="-71.631" rx="4.00002" ry="4.00002"/>
<polygon fill="#d5cc0b" stroke="#d5cc0b" points="172.969,-43.3506 169.853,-32.8365 169.706,-39.5618 166.443,-35.7729 166.443,-35.7729 166.443,-35.7729 169.706,-39.5618 163.033,-38.7093 172.969,-43.3506 172.969,-43.3506"/>
</g>
<!-- Console&#45;&gt;Team -->
<g id="edge30" class="edge"><title>Console&#45;&gt;Team</title>
<path fill="none" stroke="#382f70" d="M446.452,-266.564C446.027,-292.598 442.877,-333.627 429,-366 427.192,-370.218 424.732,-374.349 422.015,-378.211"/>
<ellipse fill="none" stroke="#382f70" cx="446.478" cy="-262.344" rx="4" ry="4"/>
<polygon fill="#382f70" stroke="#382f70" points="421.963,-378.277 412.264,-383.393 418.888,-382.219 415.812,-386.161 415.812,-386.161 415.812,-386.161 418.888,-382.219 419.36,-388.929 421.963,-378.277 421.963,-378.277"/>
</g>
<!-- Console&#45;&gt;Group -->
<g id="edge31" class="edge"><title>Console&#45;&gt;Group</title>
<path fill="none" stroke="#7b7081" d="M460.746,-215.406C465.315,-208.097 470.369,-200.01 475.016,-192.574"/>
<ellipse fill="none" stroke="#7b7081" cx="458.557" cy="-218.909" rx="4.00002" ry="4.00002"/>
<polygon fill="#7b7081" stroke="#7b7081" points="475.32,-192.089 484.436,-185.994 477.97,-187.849 480.62,-183.609 480.62,-183.609 480.62,-183.609 477.97,-187.849 476.804,-181.224 475.32,-192.089 475.32,-192.089"/>
</g>
<!-- Console&#45;&gt;GamersConsole -->
<g id="edge32" class="edge"><title>Console&#45;&gt;GamersConsole</title>
<path fill="none" stroke="#297a77" d="M423.129,-217.889C413.781,-209.26 402.933,-199.245 393.344,-190.395"/>
<ellipse fill="none" stroke="#297a77" cx="426.136" cy="-220.664" rx="4.00002" ry="4.00002"/>
<polygon fill="#297a77" stroke="#297a77" points="393.325,-190.377 389.03,-180.288 389.651,-186.986 385.977,-183.595 385.977,-183.595 385.977,-183.595 389.651,-186.986 382.925,-186.901 393.325,-190.377 393.325,-190.377"/>
</g>
</g>
</svg>
